<ttFont>
    <TTGlyph name=".notdef" xMin="89" yMin="0" xMax="565" yMax="660">
      <contour>
        <pt x="89" y="660" on="1"/>
        <pt x="565" y="660" on="1"/>
        <pt x="565" y="0" on="1"/>
        <pt x="89" y="0" on="1"/>
      </contour>
      <contour>
        <pt x="281" y="340" on="1"/>
        <pt x="154" y="572" on="1"/>
        <pt x="154" y="110" on="1"/>
      </contour>
      <contour>
        <pt x="498" y="110" on="1"/>
        <pt x="498" y="572" on="1"/>
        <pt x="372" y="340" on="1"/>
      </contour>
      <contour>
        <pt x="454" y="58" on="1"/>
        <pt x="381" y="190" on="1"/>
        <pt x="329" y="293" on="1"/>
        <pt x="325" y="293" on="1"/>
        <pt x="271" y="190" on="1"/>
        <pt x="197" y="58" on="1"/>
      </contour>
      <contour>
        <pt x="329" y="387" on="1"/>
        <pt x="378" y="481" on="1"/>
        <pt x="444" y="600" on="1"/>
        <pt x="209" y="600" on="1"/>
        <pt x="275" y="481" on="1"/>
        <pt x="325" y="387" on="1"/>
      </contour>
    </TTGlyph>
    <TTGlyph name="u0E81" xMin="40" yMin="0" xMax="550" yMax="520">
      <contour>
        <pt x="120" y="110" on="1"/>
        <pt x="108" y="110" on="0"/>
        <pt x="90" y="92" on="0"/>
        <pt x="90" y="80" on="1"/>
        <pt x="90" y="67" on="0"/>
        <pt x="108" y="50" on="0"/>
        <pt x="120" y="50" on="1"/>
        <pt x="133" y="50" on="0"/>
        <pt x="150" y="67" on="0"/>
        <pt x="150" y="80" on="1"/>
        <pt x="150" y="92" on="0"/>
        <pt x="133" y="110" on="0"/>
      </contour>
      <contour>
        <pt x="148" y="155" on="1"/>
        <pt x="148" y="380" on="1"/>
        <pt x="148" y="434" on="0"/>
        <pt x="70" y="464" on="1"/>
        <pt x="90" y="520" on="1"/>
        <pt x="153" y="506" on="0"/>
        <pt x="188" y="477" on="1"/>
        <pt x="237" y="520" on="0"/>
        <pt x="349" y="520" on="1"/>
        <pt x="550" y="520" on="0"/>
        <pt x="550" y="380" on="1"/>
        <pt x="550" y="0" on="1"/>
        <pt x="468" y="0" on="1"/>
        <pt x="468" y="380" on="1"/>
        <pt x="468" y="454" on="0"/>
        <pt x="349" y="454" on="1"/>
        <pt x="230" y="454" on="0"/>
        <pt x="230" y="380" on="1"/>
        <pt x="230" y="120" on="1"/>
        <pt x="230" y="0" on="0"/>
        <pt x="120" y="0" on="1"/>
        <pt x="87" y="0" on="0"/>
        <pt x="40" y="46" on="0"/>
        <pt x="40" y="80" on="1"/>
        <pt x="40" y="113" on="0"/>
        <pt x="87" y="160" on="0"/>
        <pt x="120" y="160" on="1"/>
        <pt x="135" y="160" on="0"/>
      </contour>
    </TTGlyph>
    <TTGlyph name="u0E82" xMin="75" yMin="0" xMax="536" yMax="520">
      <contour>
        <pt x="75" y="370" on="1"/>
        <pt x="75" y="520" on="0"/>
        <pt x="306" y="520" on="1"/>
        <pt x="536" y="520" on="0"/>
        <pt x="536" y="360" on="1"/>
        <pt x="536" y="249" on="0"/>
        <pt x="314" y="186" on="1"/>
        <pt x="157" y="142" on="0"/>
        <pt x="157" y="100" on="1"/>
        <pt x="157" y="69" on="0"/>
        <pt x="192" y="69" on="1"/>
        <pt x="207" y="69" on="0"/>
        <pt x="227" y="74" on="1"/>
        <pt x="296" y="92" on="1"/>
        <pt x="356" y="107" on="1"/>
        <pt x="403" y="119" on="0"/>
        <pt x="437" y="119" on="1"/>
        <pt x="536" y="119" on="0"/>
        <pt x="536" y="22" on="1"/>
        <pt x="536" y="0" on="1"/>
        <pt x="454" y="0" on="1"/>
        <pt x="454" y="22" on="1"/>
        <pt x="454" y="45" on="0"/>
        <pt x="413" y="45" on="1"/>
        <pt x="378" y="45" on="0"/>
        <pt x="313" y="28" on="1"/>
        <pt x="243" y="10" on="1"/>
        <pt x="202" y="0" on="0"/>
        <pt x="172" y="0" on="1"/>
        <pt x="75" y="0" on="0"/>
        <pt x="75" y="100" on="1"/>
        <pt x="75" y="187" on="0"/>
        <pt x="296" y="250" on="1"/>
        <pt x="454" y="295" on="0"/>
        <pt x="454" y="360" on="1"/>
        <pt x="454" y="454" on="0"/>
        <pt x="306" y="454" on="1"/>
        <pt x="235" y="454" on="0"/>
        <pt x="198" y="433" on="1"/>
        <pt x="215" y="427" on="0"/>
        <pt x="229" y="414" on="1"/>
        <pt x="252" y="391" on="0"/>
        <pt x="252" y="357" on="1"/>
        <pt x="252" y="324" on="0"/>
        <pt x="205" y="277" on="0"/>
        <pt x="172" y="277" on="1"/>
        <pt x="75" y="277" on="0"/>
      </contour>
      <contour>
        <pt x="172" y="387" on="1"/>
        <pt x="159" y="387" on="0"/>
        <pt x="142" y="370" on="0"/>
        <pt x="142" y="357" on="1"/>
        <pt x="142" y="345" on="0"/>
        <pt x="159" y="327" on="0"/>
        <pt x="172" y="327" on="1"/>
        <pt x="184" y="327" on="0"/>
        <pt x="202" y="345" on="0"/>
        <pt x="202" y="357" on="1"/>
        <pt x="202" y="370" on="0"/>
        <pt x="184" y="387" on="0"/>
      </contour>
    </TTGlyph>
    <TTGlyph name="u0E84" xMin="75" yMin="0" xMax="536" yMax="520">
      <contour>
        <pt x="202" y="110" on="1"/>
        <pt x="190" y="110" on="0"/>
        <pt x="172" y="92" on="0"/>
        <pt x="172" y="80" on="1"/>
        <pt x="172" y="67" on="0"/>
        <pt x="190" y="50" on="0"/>
        <pt x="202" y="50" on="1"/>
        <pt x="215" y="50" on="0"/>
        <pt x="232" y="67" on="0"/>
        <pt x="232" y="80" on="1"/>
        <pt x="232" y="92" on="0"/>
        <pt x="215" y="110" on="0"/>
      </contour>
      <contour>
        <pt x="536" y="0" on="1"/>
        <pt x="454" y="0" on="1"/>
        <pt x="454" y="360" on="1"/>
        <pt x="454" y="454" on="0"/>
        <pt x="306" y="454" on="1"/>
        <pt x="157" y="454" on="0"/>
        <pt x="157" y="360" on="1"/>
        <pt x="157" y="345" on="1"/>
        <pt x="157" y="299" on="0"/>
        <pt x="238" y="299" on="1"/>
        <pt x="282" y="299" on="1"/>
        <pt x="282" y="233" on="1"/>
        <pt x="238" y="233" on="1"/>
        <pt x="157" y="233" on="0"/>
        <pt x="157" y="187" on="1"/>
        <pt x="157" y="146" on="1"/>
        <pt x="177" y="160" on="0"/>
        <pt x="202" y="160" on="1"/>
        <pt x="235" y="160" on="0"/>
        <pt x="282" y="113" on="0"/>
        <pt x="282" y="80" on="1"/>
        <pt x="282" y="47" on="0"/>
        <pt x="235" y="0" on="0"/>
        <pt x="202" y="0" on="1"/>
        <pt x="75" y="0" on="0"/>
        <pt x="75" y="107" on="1"/>
        <pt x="75" y="187" on="1"/>
        <pt x="75" y="238" on="0"/>
        <pt x="109" y="266" on="1"/>
        <pt x="75" y="294" on="0"/>
        <pt x="75" y="345" on="1"/>
        <pt x="75" y="360" on="1"/>
        <pt x="75" y="520" on="0"/>
        <pt x="306" y="520" on="1"/>
        <pt x="536" y="520" on="0"/>
        <pt x="536" y="360" on="1"/>
      </contour>
    </TTGlyph>
    <TTGlyph name="u0E87" xMin="40" yMin="-200" xMax="421" yMax="520">
      <contour>
        <pt x="137" y="387" on="1"/>
        <pt x="124" y="387" on="0"/>
        <pt x="107" y="370" on="0"/>
        <pt x="107" y="357" on="1"/>
        <pt x="107" y="345" on="0"/>
        <pt x="124" y="327" on="0"/>
        <pt x="137" y="327" on="1"/>
        <pt x="149" y="327" on="0"/>
        <pt x="167" y="345" on="0"/>
        <pt x="167" y="357" on="1"/>
        <pt x="167" y="370" on="0"/>
        <pt x="149" y="387" on="0"/>
      </contour>
      <contour>
        <pt x="164" y="-134" on="0"/>
        <pt x="231" y="-134" on="1"/>
        <pt x="339" y="-134" on="0"/>
        <pt x="339" y="-40" on="1"/>
        <pt x="339" y="360" on="1"/>
        <pt x="339" y="454" on="0"/>
        <pt x="231" y="454" on="1"/>
        <pt x="180" y="454" on="0"/>
        <pt x="163" y="433" on="1"/>
        <pt x="180" y="427" on="0"/>
        <pt x="194" y="414" on="1"/>
        <pt x="217" y="391" on="0"/>
        <pt x="217" y="357" on="1"/>
        <pt x="217" y="324" on="0"/>
        <pt x="170" y="277" on="0"/>
        <pt x="137" y="277" on="1"/>
        <pt x="40" y="277" on="0"/>
        <pt x="40" y="370" on="1"/>
        <pt x="40" y="520" on="0"/>
        <pt x="231" y="520" on="1"/>
        <pt x="421" y="520" on="0"/>
        <pt x="421" y="360" on="1"/>
        <pt x="421" y="-40" on="1"/>
        <pt x="421" y="-200" on="0"/>
        <pt x="231" y="-200" on="1"/>
        <pt x="125" y="-200" on="0"/>
        <pt x="78" y="-151" on="1"/>
        <pt x="138" y="-98" on="1"/>
      </contour>
    </TTGlyph>
    <TTGlyph name="u0E88" xMin="40" yMin="0" xMax="501" yMax="520">
      <contour>
        <pt x="419" y="202" on="1"/>
        <pt x="419" y="360" on="1"/>
        <pt x="419" y="454" on="0"/>
        <pt x="271" y="454" on="1"/>
        <pt x="122" y="454" on="0"/>
        <pt x="122" y="360" on="1"/>
        <pt x="40" y="360" on="1"/>
        <pt x="40" y="520" on="0"/>
        <pt x="271" y="520" on="1"/>
        <pt x="501" y="520" on="0"/>
        <pt x="501" y="360" on="1"/>
        <pt x="501" y="0" on="1"/>
        <pt x="419" y="0" on="1"/>
        <pt x="419" y="37" on="1"/>
        <pt x="383" y="166" on="0"/>
        <pt x="321" y="207" on="1"/>
        <pt x="319" y="177" on="0"/>
        <pt x="298" y="156" on="1"/>
        <pt x="274" y="132" on="0"/>
        <pt x="241" y="132" on="1"/>
        <pt x="208" y="132" on="0"/>
        <pt x="161" y="179" on="0"/>
        <pt x="161" y="212" on="1"/>
        <pt x="161" y="245" on="0"/>
        <pt x="208" y="292" on="0"/>
        <pt x="241" y="292" on="1"/>
        <pt x="257" y="292" on="1"/>
        <pt x="356" y="292" on="0"/>
      </contour>
      <contour>
        <pt x="241" y="242" on="1"/>
        <pt x="229" y="242" on="0"/>
        <pt x="211" y="224" on="0"/>
        <pt x="211" y="212" on="1"/>
        <pt x="211" y="200" on="0"/>
        <pt x="229" y="182" on="0"/>
        <pt x="241" y="182" on="1"/>
        <pt x="253" y="182" on="0"/>
        <pt x="271" y="200" on="0"/>
        <pt x="271" y="212" on="1"/>
        <pt x="271" y="224" on="0"/>
        <pt x="253" y="242" on="0"/>
      </contour>
    </TTGlyph>
    <TTGlyph name="u0E8A" xMin="75" yMin="-200" xMax="536" yMax="520">
      <contour>
        <pt x="75" y="370" on="1"/>
        <pt x="75" y="520" on="0"/>
        <pt x="306" y="520" on="1"/>
        <pt x="536" y="520" on="0"/>
        <pt x="536" y="360" on="1"/>
        <pt x="536" y="249" on="0"/>
        <pt x="314" y="186" on="1"/>
        <pt x="157" y="142" on="0"/>
        <pt x="157" y="100" on="1"/>
        <pt x="157" y="69" on="0"/>
        <pt x="192" y="69" on="1"/>
        <pt x="207" y="69" on="0"/>
        <pt x="227" y="74" on="1"/>
        <pt x="296" y="92" on="1"/>
        <pt x="356" y="107" on="1"/>
        <pt x="403" y="119" on="0"/>
        <pt x="437" y="119" on="1"/>
        <pt x="536" y="119" on="0"/>
        <pt x="536" y="22" on="1"/>
        <pt x="536" y="-200" on="1"/>
        <pt x="454" y="-200" on="1"/>
        <pt x="454" y="22" on="1"/>
        <pt x="454" y="45" on="0"/>
        <pt x="413" y="45" on="1"/>
        <pt x="378" y="45" on="0"/>
        <pt x="313" y="28" on="1"/>
        <pt x="243" y="10" on="1"/>
        <pt x="202" y="0" on="0"/>
        <pt x="172" y="0" on="1"/>
        <pt x="75" y="0" on="0"/>
        <pt x="75" y="100" on="1"/>
        <pt x="75" y="187" on="0"/>
        <pt x="296" y="250" on="1"/>
        <pt x="454" y="295" on="0"/>
        <pt x="454" y="360" on="1"/>
        <pt x="454" y="454" on="0"/>
        <pt x="306" y="454" on="1"/>
        <pt x="235" y="454" on="0"/>
        <pt x="198" y="433" on="1"/>
        <pt x="215" y="427" on="0"/>
        <pt x="229" y="414" on="1"/>
        <pt x="252" y="391" on="0"/>
        <pt x="252" y="357" on="1"/>
        <pt x="252" y="324" on="0"/>
        <pt x="205" y="277" on="0"/>
        <pt x="172" y="277" on="1"/>
        <pt x="75" y="277" on="0"/>
      </contour>
      <contour>
        <pt x="172" y="387" on="1"/>
        <pt x="159" y="387" on="0"/>
        <pt x="142" y="370" on="0"/>
        <pt x="142" y="357" on="1"/>
        <pt x="142" y="345" on="0"/>
        <pt x="159" y="327" on="0"/>
        <pt x="172" y="327" on="1"/>
        <pt x="184" y="327" on="0"/>
        <pt x="202" y="345" on="0"/>
        <pt x="202" y="357" on="1"/>
        <pt x="202" y="370" on="0"/>
        <pt x="184" y="387" on="0"/>
      </contour>
    </TTGlyph>
    <TTGlyph name="u0E8D" xMin="75" yMin="0" xMax="536" yMax="520">
      <contour>
        <pt x="215" y="410" on="0"/>
        <pt x="232" y="428" on="0"/>
        <pt x="232" y="440" on="1"/>
        <pt x="232" y="453" on="0"/>
        <pt x="215" y="470" on="0"/>
        <pt x="202" y="470" on="1"/>
        <pt x="190" y="470" on="0"/>
        <pt x="172" y="453" on="0"/>
        <pt x="172" y="440" on="1"/>
        <pt x="172" y="428" on="0"/>
        <pt x="190" y="410" on="0"/>
        <pt x="202" y="410" on="1"/>
      </contour>
      <contour>
        <pt x="536" y="160" on="1"/>
        <pt x="536" y="0" on="0"/>
        <pt x="306" y="0" on="1"/>
        <pt x="75" y="0" on="0"/>
        <pt x="75" y="160" on="1"/>
        <pt x="75" y="175" on="1"/>
        <pt x="75" y="226" on="0"/>
        <pt x="109" y="254" on="1"/>
        <pt x="75" y="282" on="0"/>
        <pt x="75" y="333" on="1"/>
        <pt x="75" y="413" on="1"/>
        <pt x="75" y="520" on="0"/>
        <pt x="202" y="520" on="1"/>
        <pt x="235" y="520" on="0"/>
        <pt x="282" y="473" on="0"/>
        <pt x="282" y="440" on="1"/>
        <pt x="282" y="407" on="0"/>
        <pt x="235" y="360" on="0"/>
        <pt x="202" y="360" on="1"/>
        <pt x="177" y="360" on="0"/>
        <pt x="157" y="374" on="1"/>
        <pt x="157" y="333" on="1"/>
        <pt x="157" y="287" on="0"/>
        <pt x="238" y="287" on="1"/>
        <pt x="282" y="287" on="1"/>
        <pt x="282" y="221" on="1"/>
        <pt x="238" y="221" on="1"/>
        <pt x="157" y="221" on="0"/>
        <pt x="157" y="175" on="1"/>
        <pt x="157" y="160" on="1"/>
        <pt x="157" y="66" on="0"/>
        <pt x="306" y="66" on="1"/>
        <pt x="454" y="66" on="0"/>
        <pt x="454" y="160" on="1"/>
        <pt x="454" y="520" on="1"/>
        <pt x="536" y="520" on="1"/>
      </contour>
    </TTGlyph>
    <TTGlyph name="u0E94" xMin="75" yMin="0" xMax="536" yMax="520">
      <contour>
        <pt x="202" y="110" on="1"/>
        <pt x="190" y="110" on="0"/>
        <pt x="172" y="92" on="0"/>
        <pt x="172" y="80" on="1"/>
        <pt x="172" y="67" on="0"/>
        <pt x="190" y="50" on="0"/>
        <pt x="202" y="50" on="1"/>
        <pt x="215" y="50" on="0"/>
        <pt x="232" y="67" on="0"/>
        <pt x="232" y="80" on="1"/>
        <pt x="232" y="92" on="0"/>
        <pt x="215" y="110" on="0"/>
      </contour>
      <contour>
        <pt x="536" y="0" on="1"/>
        <pt x="454" y="0" on="1"/>
        <pt x="454" y="360" on="1"/>
        <pt x="454" y="454" on="0"/>
        <pt x="306" y="454" on="1"/>
        <pt x="157" y="454" on="0"/>
        <pt x="157" y="360" on="1"/>
        <pt x="157" y="146" on="1"/>
        <pt x="177" y="160" on="0"/>
        <pt x="202" y="160" on="1"/>
        <pt x="235" y="160" on="0"/>
        <pt x="282" y="113" on="0"/>
        <pt x="282" y="80" on="1"/>
        <pt x="282" y="47" on="0"/>
        <pt x="235" y="0" on="0"/>
        <pt x="202" y="0" on="1"/>
        <pt x="75" y="0" on="0"/>
        <pt x="75" y="107" on="1"/>
        <pt x="75" y="360" on="1"/>
        <pt x="75" y="520" on="0"/>
        <pt x="306" y="520" on="1"/>
        <pt x="536" y="520" on="0"/>
        <pt x="536" y="360" on="1"/>
      </contour>
    </TTGlyph>
    <TTGlyph name="u0E95" xMin="75" yMin="0" xMax="536" yMax="520">
      <contour>
        <pt x="202" y="110" on="1"/>
        <pt x="190" y="110" on="0"/>
        <pt x="172" y="92" on="0"/>
        <pt x="172" y="80" on="1"/>
        <pt x="172" y="67" on="0"/>
        <pt x="190" y="50" on="0"/>
        <pt x="202" y="50" on="1"/>
        <pt x="215" y="50" on="0"/>
        <pt x="232" y="67" on="0"/>
        <pt x="232" y="80" on="1"/>
        <pt x="232" y="92" on="0"/>
        <pt x="215" y="110" on="0"/>
      </contour>
      <contour>
        <pt x="157" y="360" on="1"/>
        <pt x="157" y="146" on="1"/>
        <pt x="177" y="160" on="0"/>
        <pt x="202" y="160" on="1"/>
        <pt x="235" y="160" on="0"/>
        <pt x="282" y="113" on="0"/>
        <pt x="282" y="80" on="1"/>
        <pt x="282" y="47" on="0"/>
        <pt x="235" y="0" on="0"/>
        <pt x="202" y="0" on="1"/>
        <pt x="75" y="0" on="0"/>
        <pt x="75" y="107" on="1"/>
        <pt x="75" y="360" on="1"/>
        <pt x="75" y="520" on="0"/>
        <pt x="206" y="520" on="1"/>
        <pt x="273" y="520" on="0"/>
        <pt x="306" y="457" on="1"/>
        <pt x="339" y="520" on="0"/>
        <pt x="406" y="520" on="1"/>
        <pt x="536" y="520" on="0"/>
        <pt x="536" y="360" on="1"/>
        <pt x="536" y="0" on="1"/>
        <pt x="454" y="0" on="1"/>
        <pt x="454" y="360" on="1"/>
        <pt x="454" y="454" on="0"/>
        <pt x="406" y="454" on="1"/>
        <pt x="347" y="454" on="0"/>
        <pt x="337" y="350" on="1"/>
        <pt x="274" y="350" on="1"/>
        <pt x="264" y="454" on="0"/>
        <pt x="206" y="454" on="1"/>
        <pt x="157" y="454" on="0"/>
      </contour>
    </TTGlyph>
    <TTGlyph name="u0E96" xMin="40" yMin="-200" xMax="550" yMax="520">
      <contour>
        <pt x="215" y="110" on="0"/>
        <pt x="198" y="92" on="0"/>
        <pt x="198" y="80" on="1"/>
        <pt x="198" y="67" on="0"/>
        <pt x="215" y="50" on="0"/>
        <pt x="228" y="50" on="1"/>
        <pt x="240" y="50" on="0"/>
        <pt x="258" y="67" on="0"/>
        <pt x="258" y="80" on="1"/>
        <pt x="258" y="92" on="0"/>
        <pt x="240" y="110" on="0"/>
        <pt x="228" y="110" on="1"/>
      </contour>
      <contour>
        <pt x="118" y="380" on="1"/>
        <pt x="118" y="434" on="0"/>
        <pt x="40" y="464" on="1"/>
        <pt x="60" y="520" on="1"/>
        <pt x="123" y="506" on="0"/>
        <pt x="158" y="477" on="1"/>
        <pt x="207" y="520" on="0"/>
        <pt x="334" y="520" on="1"/>
        <pt x="550" y="520" on="0"/>
        <pt x="550" y="380" on="1"/>
        <pt x="550" y="-200" on="1"/>
        <pt x="468" y="-200" on="1"/>
        <pt x="468" y="380" on="1"/>
        <pt x="468" y="454" on="0"/>
        <pt x="334" y="454" on="1"/>
        <pt x="200" y="454" on="0"/>
        <pt x="200" y="380" on="1"/>
        <pt x="200" y="155" on="1"/>
        <pt x="213" y="160" on="0"/>
        <pt x="228" y="160" on="1"/>
        <pt x="261" y="160" on="0"/>
        <pt x="308" y="113" on="0"/>
        <pt x="308" y="80" on="1"/>
        <pt x="308" y="46" on="0"/>
        <pt x="261" y="0" on="0"/>
        <pt x="228" y="0" on="1"/>
        <pt x="118" y="0" on="0"/>
        <pt x="118" y="120" on="1"/>
      </contour>
    </TTGlyph>
    <TTGlyph name="u0E97" xMin="60" yMin="0" xMax="675" yMax="520">
      <contour>
        <pt x="249" y="520" on="0"/>
        <pt x="249" y="420" on="1"/>
        <pt x="249" y="307" on="0"/>
        <pt x="197" y="254" on="1"/>
        <pt x="157" y="213" on="0"/>
        <pt x="157" y="160" on="1"/>
        <pt x="157" y="66" on="0"/>
        <pt x="251" y="66" on="1"/>
        <pt x="344" y="66" on="0"/>
        <pt x="344" y="160" on="1"/>
        <pt x="344" y="360" on="1"/>
        <pt x="344" y="520" on="0"/>
        <pt x="510" y="520" on="1"/>
        <pt x="675" y="520" on="0"/>
        <pt x="675" y="360" on="1"/>
        <pt x="675" y="0" on="1"/>
        <pt x="593" y="0" on="1"/>
        <pt x="593" y="360" on="1"/>
        <pt x="593" y="454" on="0"/>
        <pt x="510" y="454" on="1"/>
        <pt x="426" y="454" on="0"/>
        <pt x="426" y="360" on="1"/>
        <pt x="426" y="160" on="1"/>
        <pt x="426" y="0" on="0"/>
        <pt x="251" y="0" on="1"/>
        <pt x="75" y="0" on="0"/>
        <pt x="75" y="160" on="1"/>
        <pt x="75" y="247" on="0"/>
        <pt x="139" y="312" on="1"/>
        <pt x="155" y="329" on="0"/>
        <pt x="162" y="363" on="1"/>
        <pt x="152" y="360" on="0"/>
        <pt x="140" y="360" on="1"/>
        <pt x="107" y="360" on="0"/>
        <pt x="60" y="407" on="0"/>
        <pt x="60" y="440" on="1"/>
        <pt x="60" y="474" on="0"/>
        <pt x="107" y="520" on="0"/>
        <pt x="140" y="520" on="1"/>
      </contour>
      <contour>
        <pt x="140" y="470" on="1"/>
        <pt x="127" y="470" on="0"/>
        <pt x="110" y="453" on="0"/>
        <pt x="110" y="440" on="1"/>
        <pt x="110" y="428" on="0"/>
        <pt x="127" y="410" on="0"/>
        <pt x="140" y="410" on="1"/>
        <pt x="152" y="410" on="0"/>
        <pt x="170" y="428" on="0"/>
        <pt x="170" y="440" on="1"/>
        <pt x="170" y="453" on="0"/>
        <pt x="152" y="470" on="0"/>
      </contour>
    </TTGlyph>
    <TTGlyph name="u0E99" xMin="40" yMin="0" xMax="550" yMax="520">
      <contour>
        <pt x="133" y="410" on="0"/>
        <pt x="150" y="428" on="0"/>
        <pt x="150" y="440" on="1"/>
        <pt x="150" y="453" on="0"/>
        <pt x="133" y="470" on="0"/>
        <pt x="120" y="470" on="1"/>
        <pt x="108" y="470" on="0"/>
        <pt x="90" y="453" on="0"/>
        <pt x="90" y="440" on="1"/>
        <pt x="90" y="428" on="0"/>
        <pt x="108" y="410" on="0"/>
        <pt x="120" y="410" on="1"/>
      </contour>
      <contour>
        <pt x="135" y="360" on="0"/>
        <pt x="120" y="360" on="1"/>
        <pt x="87" y="360" on="0"/>
        <pt x="40" y="407" on="0"/>
        <pt x="40" y="440" on="1"/>
        <pt x="40" y="474" on="0"/>
        <pt x="87" y="520" on="0"/>
        <pt x="120" y="520" on="1"/>
        <pt x="230" y="520" on="0"/>
        <pt x="230" y="400" on="1"/>
        <pt x="230" y="140" on="1"/>
        <pt x="230" y="66" on="0"/>
        <pt x="349" y="66" on="1"/>
        <pt x="468" y="66" on="0"/>
        <pt x="468" y="140" on="1"/>
        <pt x="468" y="520" on="1"/>
        <pt x="550" y="520" on="1"/>
        <pt x="550" y="140" on="1"/>
        <pt x="550" y="0" on="0"/>
        <pt x="349" y="0" on="1"/>
        <pt x="237" y="0" on="0"/>
        <pt x="188" y="43" on="1"/>
        <pt x="153" y="14" on="0"/>
        <pt x="90" y="0" on="1"/>
        <pt x="70" y="56" on="1"/>
        <pt x="148" y="86" on="0"/>
        <pt x="148" y="140" on="1"/>
        <pt x="148" y="365" on="1"/>
      </contour>
    </TTGlyph>
    <TTGlyph name="u0E9A" xMin="60" yMin="0" xMax="536" yMax="520">
      <contour>
        <pt x="140" y="470" on="1"/>
        <pt x="127" y="470" on="0"/>
        <pt x="110" y="453" on="0"/>
        <pt x="110" y="440" on="1"/>
        <pt x="110" y="428" on="0"/>
        <pt x="127" y="410" on="0"/>
        <pt x="140" y="410" on="1"/>
        <pt x="152" y="410" on="0"/>
        <pt x="170" y="428" on="0"/>
        <pt x="170" y="440" on="1"/>
        <pt x="170" y="453" on="0"/>
        <pt x="152" y="470" on="0"/>
      </contour>
      <contour>
        <pt x="75" y="160" on="1"/>
        <pt x="75" y="247" on="0"/>
        <pt x="139" y="312" on="1"/>
        <pt x="155" y="329" on="0"/>
        <pt x="162" y="363" on="1"/>
        <pt x="152" y="360" on="0"/>
        <pt x="140" y="360" on="1"/>
        <pt x="107" y="360" on="0"/>
        <pt x="60" y="407" on="0"/>
        <pt x="60" y="440" on="1"/>
        <pt x="60" y="474" on="0"/>
        <pt x="107" y="520" on="0"/>
        <pt x="140" y="520" on="1"/>
        <pt x="249" y="520" on="0"/>
        <pt x="249" y="420" on="1"/>
        <pt x="249" y="307" on="0"/>
        <pt x="197" y="254" on="1"/>
        <pt x="157" y="213" on="0"/>
        <pt x="157" y="160" on="1"/>
        <pt x="157" y="66" on="0"/>
        <pt x="306" y="66" on="1"/>
        <pt x="454" y="66" on="0"/>
        <pt x="454" y="160" on="1"/>
        <pt x="454" y="520" on="1"/>
        <pt x="536" y="520" on="1"/>
        <pt x="536" y="160" on="1"/>
        <pt x="536" y="0" on="0"/>
        <pt x="306" y="0" on="1"/>
        <pt x="75" y="0" on="0"/>
      </contour>
    </TTGlyph>
    <TTGlyph name="u0E9B" xMin="60" yMin="0" xMax="536" yMax="720">
      <contour>
        <pt x="140" y="470" on="1"/>
        <pt x="127" y="470" on="0"/>
        <pt x="110" y="453" on="0"/>
        <pt x="110" y="440" on="1"/>
        <pt x="110" y="428" on="0"/>
        <pt x="127" y="410" on="0"/>
        <pt x="140" y="410" on="1"/>
        <pt x="152" y="410" on="0"/>
        <pt x="170" y="428" on="0"/>
        <pt x="170" y="440" on="1"/>
        <pt x="170" y="453" on="0"/>
        <pt x="152" y="470" on="0"/>
      </contour>
      <contour>
        <pt x="75" y="160" on="1"/>
        <pt x="75" y="247" on="0"/>
        <pt x="139" y="312" on="1"/>
        <pt x="155" y="329" on="0"/>
        <pt x="162" y="363" on="1"/>
        <pt x="152" y="360" on="0"/>
        <pt x="140" y="360" on="1"/>
        <pt x="107" y="360" on="0"/>
        <pt x="60" y="407" on="0"/>
        <pt x="60" y="440" on="1"/>
        <pt x="60" y="474" on="0"/>
        <pt x="107" y="520" on="0"/>
        <pt x="140" y="520" on="1"/>
        <pt x="249" y="520" on="0"/>
        <pt x="249" y="420" on="1"/>
        <pt x="249" y="307" on="0"/>
        <pt x="197" y="254" on="1"/>
        <pt x="157" y="213" on="0"/>
        <pt x="157" y="160" on="1"/>
        <pt x="157" y="66" on="0"/>
        <pt x="306" y="66" on="1"/>
        <pt x="454" y="66" on="0"/>
        <pt x="454" y="160" on="1"/>
        <pt x="454" y="720" on="1"/>
        <pt x="536" y="720" on="1"/>
        <pt x="536" y="160" on="1"/>
        <pt x="536" y="0" on="0"/>
        <pt x="306" y="0" on="1"/>
        <pt x="75" y="0" on="0"/>
      </contour>
    </TTGlyph>
    <TTGlyph name="u0E9C" xMin="75" yMin="0" xMax="571" yMax="520">
      <contour>
        <pt x="232" y="428" on="0"/>
        <pt x="232" y="440" on="1"/>
        <pt x="232" y="453" on="0"/>
        <pt x="215" y="470" on="0"/>
        <pt x="202" y="470" on="1"/>
        <pt x="190" y="470" on="0"/>
        <pt x="172" y="453" on="0"/>
        <pt x="172" y="440" on="1"/>
        <pt x="172" y="428" on="0"/>
        <pt x="190" y="410" on="0"/>
        <pt x="202" y="410" on="1"/>
        <pt x="215" y="410" on="0"/>
      </contour>
      <contour>
        <pt x="484" y="454" on="1"/>
        <pt x="536" y="428" on="0"/>
        <pt x="536" y="380" on="1"/>
        <pt x="536" y="160" on="1"/>
        <pt x="536" y="0" on="0"/>
        <pt x="406" y="0" on="1"/>
        <pt x="339" y="0" on="0"/>
        <pt x="306" y="63" on="1"/>
        <pt x="273" y="0" on="0"/>
        <pt x="206" y="0" on="1"/>
        <pt x="75" y="0" on="0"/>
        <pt x="75" y="160" on="1"/>
        <pt x="75" y="413" on="1"/>
        <pt x="75" y="520" on="0"/>
        <pt x="202" y="520" on="1"/>
        <pt x="235" y="520" on="0"/>
        <pt x="282" y="473" on="0"/>
        <pt x="282" y="440" on="1"/>
        <pt x="282" y="407" on="0"/>
        <pt x="235" y="360" on="0"/>
        <pt x="202" y="360" on="1"/>
        <pt x="177" y="360" on="0"/>
        <pt x="157" y="374" on="1"/>
        <pt x="157" y="160" on="1"/>
        <pt x="157" y="66" on="0"/>
        <pt x="206" y="66" on="1"/>
        <pt x="265" y="66" on="0"/>
        <pt x="265" y="170" on="1"/>
        <pt x="265" y="250" on="1"/>
        <pt x="347" y="250" on="1"/>
        <pt x="347" y="170" on="1"/>
        <pt x="347" y="66" on="0"/>
        <pt x="406" y="66" on="1"/>
        <pt x="454" y="66" on="0"/>
        <pt x="454" y="160" on="1"/>
        <pt x="454" y="380" on="1"/>
        <pt x="454" y="420" on="0"/>
        <pt x="374" y="454" on="0"/>
        <pt x="374" y="483" on="1"/>
        <pt x="374" y="520" on="0"/>
        <pt x="415" y="520" on="1"/>
        <pt x="571" y="520" on="1"/>
        <pt x="571" y="454" on="1"/>
      </contour>
    </TTGlyph>
    <TTGlyph name="u0E9D" xMin="75" yMin="0" xMax="536" yMax="720">
      <contour>
        <pt x="232" y="440" on="1"/>
        <pt x="232" y="453" on="0"/>
        <pt x="215" y="470" on="0"/>
        <pt x="202" y="470" on="1"/>
        <pt x="190" y="470" on="0"/>
        <pt x="172" y="453" on="0"/>
        <pt x="172" y="440" on="1"/>
        <pt x="172" y="428" on="0"/>
        <pt x="190" y="410" on="0"/>
        <pt x="202" y="410" on="1"/>
        <pt x="215" y="410" on="0"/>
        <pt x="232" y="428" on="0"/>
      </contour>
      <contour>
        <pt x="536" y="160" on="1"/>
        <pt x="536" y="0" on="0"/>
        <pt x="406" y="0" on="1"/>
        <pt x="339" y="0" on="0"/>
        <pt x="306" y="63" on="1"/>
        <pt x="273" y="0" on="0"/>
        <pt x="206" y="0" on="1"/>
        <pt x="75" y="0" on="0"/>
        <pt x="75" y="160" on="1"/>
        <pt x="75" y="413" on="1"/>
        <pt x="75" y="520" on="0"/>
        <pt x="202" y="520" on="1"/>
        <pt x="235" y="520" on="0"/>
        <pt x="282" y="473" on="0"/>
        <pt x="282" y="440" on="1"/>
        <pt x="282" y="407" on="0"/>
        <pt x="235" y="360" on="0"/>
        <pt x="202" y="360" on="1"/>
        <pt x="177" y="360" on="0"/>
        <pt x="157" y="374" on="1"/>
        <pt x="157" y="160" on="1"/>
        <pt x="157" y="66" on="0"/>
        <pt x="206" y="66" on="1"/>
        <pt x="265" y="66" on="0"/>
        <pt x="265" y="170" on="1"/>
        <pt x="265" y="250" on="1"/>
        <pt x="347" y="250" on="1"/>
        <pt x="347" y="170" on="1"/>
        <pt x="347" y="66" on="0"/>
        <pt x="406" y="66" on="1"/>
        <pt x="454" y="66" on="0"/>
        <pt x="454" y="160" on="1"/>
        <pt x="454" y="720" on="1"/>
        <pt x="536" y="720" on="1"/>
      </contour>
    </TTGlyph>
    <TTGlyph name="u0E9E" xMin="60" yMin="0" xMax="675" yMax="520">
      <contour>
        <pt x="140" y="470" on="1"/>
        <pt x="127" y="470" on="0"/>
        <pt x="110" y="453" on="0"/>
        <pt x="110" y="440" on="1"/>
        <pt x="110" y="428" on="0"/>
        <pt x="127" y="410" on="0"/>
        <pt x="140" y="410" on="1"/>
        <pt x="152" y="410" on="0"/>
        <pt x="170" y="428" on="0"/>
        <pt x="170" y="440" on="1"/>
        <pt x="170" y="453" on="0"/>
        <pt x="152" y="470" on="0"/>
      </contour>
      <contour>
        <pt x="344" y="520" on="1"/>
        <pt x="426" y="520" on="1"/>
        <pt x="426" y="160" on="1"/>
        <pt x="426" y="66" on="0"/>
        <pt x="510" y="66" on="1"/>
        <pt x="593" y="66" on="0"/>
        <pt x="593" y="160" on="1"/>
        <pt x="593" y="520" on="1"/>
        <pt x="675" y="520" on="1"/>
        <pt x="675" y="160" on="1"/>
        <pt x="675" y="0" on="0"/>
        <pt x="510" y="0" on="1"/>
        <pt x="425" y="0" on="0"/>
        <pt x="384" y="42" on="1"/>
        <pt x="340" y="0" on="0"/>
        <pt x="251" y="0" on="1"/>
        <pt x="75" y="0" on="0"/>
        <pt x="75" y="160" on="1"/>
        <pt x="75" y="247" on="0"/>
        <pt x="139" y="312" on="1"/>
        <pt x="155" y="329" on="0"/>
        <pt x="162" y="363" on="1"/>
        <pt x="152" y="360" on="0"/>
        <pt x="140" y="360" on="1"/>
        <pt x="107" y="360" on="0"/>
        <pt x="60" y="407" on="0"/>
        <pt x="60" y="440" on="1"/>
        <pt x="60" y="474" on="0"/>
        <pt x="107" y="520" on="0"/>
        <pt x="140" y="520" on="1"/>
        <pt x="249" y="520" on="0"/>
        <pt x="249" y="420" on="1"/>
        <pt x="249" y="307" on="0"/>
        <pt x="197" y="254" on="1"/>
        <pt x="157" y="213" on="0"/>
        <pt x="157" y="160" on="1"/>
        <pt x="157" y="66" on="0"/>
        <pt x="251" y="66" on="1"/>
        <pt x="344" y="66" on="0"/>
        <pt x="344" y="160" on="1"/>
      </contour>
    </TTGlyph>
    <TTGlyph name="u0E9F" xMin="60" yMin="0" xMax="675" yMax="720">
      <contour>
        <pt x="140" y="470" on="1"/>
        <pt x="127" y="470" on="0"/>
        <pt x="110" y="453" on="0"/>
        <pt x="110" y="440" on="1"/>
        <pt x="110" y="428" on="0"/>
        <pt x="127" y="410" on="0"/>
        <pt x="140" y="410" on="1"/>
        <pt x="152" y="410" on="0"/>
        <pt x="170" y="428" on="0"/>
        <pt x="170" y="440" on="1"/>
        <pt x="170" y="453" on="0"/>
        <pt x="152" y="470" on="0"/>
      </contour>
      <contour>
        <pt x="675" y="160" on="1"/>
        <pt x="675" y="0" on="0"/>
        <pt x="510" y="0" on="1"/>
        <pt x="425" y="0" on="0"/>
        <pt x="384" y="42" on="1"/>
        <pt x="340" y="0" on="0"/>
        <pt x="251" y="0" on="1"/>
        <pt x="75" y="0" on="0"/>
        <pt x="75" y="160" on="1"/>
        <pt x="75" y="247" on="0"/>
        <pt x="139" y="312" on="1"/>
        <pt x="155" y="329" on="0"/>
        <pt x="162" y="363" on="1"/>
        <pt x="152" y="360" on="0"/>
        <pt x="140" y="360" on="1"/>
        <pt x="107" y="360" on="0"/>
        <pt x="60" y="407" on="0"/>
        <pt x="60" y="440" on="1"/>
        <pt x="60" y="474" on="0"/>
        <pt x="107" y="520" on="0"/>
        <pt x="140" y="520" on="1"/>
        <pt x="249" y="520" on="0"/>
        <pt x="249" y="420" on="1"/>
        <pt x="249" y="307" on="0"/>
        <pt x="197" y="254" on="1"/>
        <pt x="157" y="213" on="0"/>
        <pt x="157" y="160" on="1"/>
        <pt x="157" y="66" on="0"/>
        <pt x="251" y="66" on="1"/>
        <pt x="344" y="66" on="0"/>
        <pt x="344" y="160" on="1"/>
        <pt x="344" y="520" on="1"/>
        <pt x="426" y="520" on="1"/>
        <pt x="426" y="160" on="1"/>
        <pt x="426" y="66" on="0"/>
        <pt x="510" y="66" on="1"/>
        <pt x="593" y="66" on="0"/>
        <pt x="593" y="160" on="1"/>
        <pt x="593" y="720" on="1"/>
        <pt x="675" y="720" on="1"/>
      </contour>
    </TTGlyph>
    <TTGlyph name="u0EA1" xMin="40" yMin="0" xMax="550" yMax="520">
      <contour>
        <pt x="120" y="110" on="1"/>
        <pt x="108" y="110" on="0"/>
        <pt x="90" y="92" on="0"/>
        <pt x="90" y="80" on="1"/>
        <pt x="90" y="67" on="0"/>
        <pt x="108" y="50" on="0"/>
        <pt x="120" y="50" on="1"/>
        <pt x="133" y="50" on="0"/>
        <pt x="150" y="67" on="0"/>
        <pt x="150" y="80" on="1"/>
        <pt x="150" y="92" on="0"/>
        <pt x="133" y="110" on="0"/>
      </contour>
      <contour>
        <pt x="148" y="520" on="1"/>
        <pt x="230" y="520" on="1"/>
        <pt x="230" y="140" on="1"/>
        <pt x="230" y="66" on="0"/>
        <pt x="349" y="66" on="1"/>
        <pt x="468" y="66" on="0"/>
        <pt x="468" y="140" on="1"/>
        <pt x="468" y="520" on="1"/>
        <pt x="550" y="520" on="1"/>
        <pt x="550" y="140" on="1"/>
        <pt x="550" y="0" on="0"/>
        <pt x="349" y="0" on="1"/>
        <pt x="254" y="0" on="0"/>
        <pt x="204" y="31" on="1"/>
        <pt x="176" y="0" on="0"/>
        <pt x="120" y="0" on="1"/>
        <pt x="87" y="0" on="0"/>
        <pt x="40" y="46" on="0"/>
        <pt x="40" y="80" on="1"/>
        <pt x="40" y="113" on="0"/>
        <pt x="87" y="160" on="0"/>
        <pt x="120" y="160" on="1"/>
        <pt x="135" y="160" on="0"/>
        <pt x="148" y="155" on="1"/>
      </contour>
    </TTGlyph>
    <TTGlyph name="u0EA2" xMin="75" yMin="0" xMax="536" yMax="720">
      <contour>
        <pt x="232" y="428" on="0"/>
        <pt x="232" y="440" on="1"/>
        <pt x="232" y="453" on="0"/>
        <pt x="215" y="470" on="0"/>
        <pt x="202" y="470" on="1"/>
        <pt x="190" y="470" on="0"/>
        <pt x="172" y="453" on="0"/>
        <pt x="172" y="440" on="1"/>
        <pt x="172" y="428" on="0"/>
        <pt x="190" y="410" on="0"/>
        <pt x="202" y="410" on="1"/>
        <pt x="215" y="410" on="0"/>
      </contour>
      <contour>
        <pt x="536" y="160" on="1"/>
        <pt x="536" y="0" on="0"/>
        <pt x="306" y="0" on="1"/>
        <pt x="75" y="0" on="0"/>
        <pt x="75" y="160" on="1"/>
        <pt x="75" y="175" on="1"/>
        <pt x="75" y="226" on="0"/>
        <pt x="109" y="254" on="1"/>
        <pt x="75" y="282" on="0"/>
        <pt x="75" y="333" on="1"/>
        <pt x="75" y="413" on="1"/>
        <pt x="75" y="520" on="0"/>
        <pt x="202" y="520" on="1"/>
        <pt x="235" y="520" on="0"/>
        <pt x="282" y="473" on="0"/>
        <pt x="282" y="440" on="1"/>
        <pt x="282" y="407" on="0"/>
        <pt x="235" y="360" on="0"/>
        <pt x="202" y="360" on="1"/>
        <pt x="177" y="360" on="0"/>
        <pt x="157" y="374" on="1"/>
        <pt x="157" y="333" on="1"/>
        <pt x="157" y="287" on="0"/>
        <pt x="238" y="287" on="1"/>
        <pt x="282" y="287" on="1"/>
        <pt x="282" y="221" on="1"/>
        <pt x="238" y="221" on="1"/>
        <pt x="157" y="221" on="0"/>
        <pt x="157" y="175" on="1"/>
        <pt x="157" y="160" on="1"/>
        <pt x="157" y="66" on="0"/>
        <pt x="306" y="66" on="1"/>
        <pt x="454" y="66" on="0"/>
        <pt x="454" y="160" on="1"/>
        <pt x="454" y="720" on="1"/>
        <pt x="536" y="720" on="1"/>
      </contour>
    </TTGlyph>
    <TTGlyph name="u0EA3" xMin="75" yMin="0" xMax="537" yMax="520">
      <contour>
        <pt x="202" y="163" on="1"/>
        <pt x="202" y="175" on="0"/>
        <pt x="184" y="193" on="0"/>
        <pt x="172" y="193" on="1"/>
        <pt x="159" y="193" on="0"/>
        <pt x="142" y="175" on="0"/>
        <pt x="142" y="163" on="1"/>
        <pt x="142" y="150" on="0"/>
        <pt x="159" y="133" on="0"/>
        <pt x="172" y="133" on="1"/>
        <pt x="184" y="133" on="0"/>
        <pt x="202" y="150" on="0"/>
      </contour>
      <contour>
        <pt x="76" y="400" on="1"/>
        <pt x="76" y="520" on="0"/>
        <pt x="307" y="520" on="1"/>
        <pt x="537" y="520" on="0"/>
        <pt x="537" y="380" on="1"/>
        <pt x="455" y="380" on="1"/>
        <pt x="455" y="454" on="0"/>
        <pt x="307" y="454" on="1"/>
        <pt x="158" y="454" on="0"/>
        <pt x="158" y="400" on="1"/>
        <pt x="157" y="400" on="1"/>
        <pt x="157" y="348" on="0"/>
        <pt x="310" y="325" on="1"/>
        <pt x="536" y="290" on="0"/>
        <pt x="536" y="160" on="1"/>
        <pt x="536" y="0" on="0"/>
        <pt x="306" y="0" on="1"/>
        <pt x="75" y="0" on="0"/>
        <pt x="75" y="150" on="1"/>
        <pt x="75" y="243" on="0"/>
        <pt x="172" y="243" on="1"/>
        <pt x="205" y="243" on="0"/>
        <pt x="252" y="196" on="0"/>
        <pt x="252" y="163" on="1"/>
        <pt x="252" y="129" on="0"/>
        <pt x="229" y="106" on="1"/>
        <pt x="215" y="93" on="0"/>
        <pt x="198" y="87" on="1"/>
        <pt x="235" y="66" on="0"/>
        <pt x="306" y="66" on="1"/>
        <pt x="454" y="66" on="0"/>
        <pt x="454" y="160" on="1"/>
        <pt x="454" y="235" on="0"/>
        <pt x="300" y="259" on="1"/>
        <pt x="75" y="294" on="0"/>
        <pt x="75" y="400" on="1"/>
      </contour>
    </TTGlyph>
    <TTGlyph name="u0EA5" xMin="75" yMin="0" xMax="536" yMax="520">
      <contour>
        <pt x="202" y="110" on="1"/>
        <pt x="190" y="110" on="0"/>
        <pt x="172" y="92" on="0"/>
        <pt x="172" y="80" on="1"/>
        <pt x="172" y="67" on="0"/>
        <pt x="190" y="50" on="0"/>
        <pt x="202" y="50" on="1"/>
        <pt x="215" y="50" on="0"/>
        <pt x="232" y="67" on="0"/>
        <pt x="232" y="80" on="1"/>
        <pt x="232" y="92" on="0"/>
        <pt x="215" y="110" on="0"/>
      </contour>
      <contour>
        <pt x="454" y="66" on="0"/>
        <pt x="454" y="100" on="1"/>
        <pt x="454" y="360" on="1"/>
        <pt x="454" y="454" on="0"/>
        <pt x="306" y="454" on="1"/>
        <pt x="157" y="454" on="0"/>
        <pt x="157" y="360" on="1"/>
        <pt x="75" y="360" on="1"/>
        <pt x="75" y="520" on="0"/>
        <pt x="306" y="520" on="1"/>
        <pt x="536" y="520" on="0"/>
        <pt x="536" y="360" on="1"/>
        <pt x="536" y="100" on="1"/>
        <pt x="536" y="0" on="0"/>
        <pt x="436" y="0" on="1"/>
        <pt x="352" y="0" on="0"/>
        <pt x="338" y="94" on="1"/>
        <pt x="328" y="160" on="1"/>
        <pt x="318" y="227" on="0"/>
        <pt x="233" y="227" on="1"/>
        <pt x="157" y="227" on="0"/>
        <pt x="157" y="160" on="1"/>
        <pt x="157" y="146" on="1"/>
        <pt x="177" y="160" on="0"/>
        <pt x="202" y="160" on="1"/>
        <pt x="235" y="160" on="0"/>
        <pt x="282" y="113" on="0"/>
        <pt x="282" y="80" on="1"/>
        <pt x="282" y="47" on="0"/>
        <pt x="235" y="0" on="0"/>
        <pt x="202" y="0" on="1"/>
        <pt x="75" y="0" on="0"/>
        <pt x="75" y="107" on="1"/>
        <pt x="75" y="160" on="1"/>
        <pt x="75" y="293" on="0"/>
        <pt x="233" y="293" on="1"/>
        <pt x="375" y="293" on="0"/>
        <pt x="394" y="170" on="1"/>
        <pt x="403" y="104" on="1"/>
        <pt x="409" y="66" on="0"/>
        <pt x="436" y="66" on="1"/>
      </contour>
    </TTGlyph>
    <TTGlyph name="u0EA7" xMin="75" yMin="0" xMax="536" yMax="520">
      <contour>
        <pt x="202" y="163" on="1"/>
        <pt x="202" y="175" on="0"/>
        <pt x="184" y="193" on="0"/>
        <pt x="172" y="193" on="1"/>
        <pt x="159" y="193" on="0"/>
        <pt x="142" y="175" on="0"/>
        <pt x="142" y="163" on="1"/>
        <pt x="142" y="150" on="0"/>
        <pt x="159" y="133" on="0"/>
        <pt x="172" y="133" on="1"/>
        <pt x="184" y="133" on="0"/>
        <pt x="202" y="150" on="0"/>
      </contour>
      <contour>
        <pt x="536" y="160" on="1"/>
        <pt x="536" y="0" on="0"/>
        <pt x="306" y="0" on="1"/>
        <pt x="75" y="0" on="0"/>
        <pt x="75" y="160" on="1"/>
        <pt x="75" y="253" on="0"/>
        <pt x="172" y="253" on="1"/>
        <pt x="205" y="253" on="0"/>
        <pt x="252" y="206" on="0"/>
        <pt x="252" y="163" on="1"/>
        <pt x="252" y="129" on="0"/>
        <pt x="229" y="106" on="1"/>
        <pt x="215" y="93" on="0"/>
        <pt x="198" y="87" on="1"/>
        <pt x="235" y="66" on="0"/>
        <pt x="306" y="66" on="1"/>
        <pt x="454" y="66" on="0"/>
        <pt x="454" y="160" on="1"/>
        <pt x="454" y="360" on="1"/>
        <pt x="454" y="454" on="0"/>
        <pt x="306" y="454" on="1"/>
        <pt x="157" y="454" on="0"/>
        <pt x="157" y="360" on="1"/>
        <pt x="75" y="360" on="1"/>
        <pt x="75" y="520" on="0"/>
        <pt x="306" y="520" on="1"/>
        <pt x="536" y="520" on="0"/>
        <pt x="536" y="360" on="1"/>
      </contour>
    </TTGlyph>
    <TTGlyph name="u0EAA" xMin="75" yMin="0" xMax="586" yMax="520">
      <contour>
        <pt x="202" y="110" on="1"/>
        <pt x="190" y="110" on="0"/>
        <pt x="172" y="92" on="0"/>
        <pt x="172" y="80" on="1"/>
        <pt x="172" y="67" on="0"/>
        <pt x="190" y="50" on="0"/>
        <pt x="202" y="50" on="1"/>
        <pt x="215" y="50" on="0"/>
        <pt x="232" y="67" on="0"/>
        <pt x="232" y="80" on="1"/>
        <pt x="232" y="92" on="0"/>
        <pt x="215" y="110" on="0"/>
      </contour>
      <contour>
        <pt x="371" y="263" on="0"/>
        <pt x="394" y="104" on="1"/>
        <pt x="400" y="66" on="0"/>
        <pt x="426" y="66" on="1"/>
        <pt x="454" y="66" on="0"/>
        <pt x="454" y="100" on="1"/>
        <pt x="454" y="331" on="1"/>
        <pt x="393" y="300" on="0"/>
        <pt x="306" y="300" on="1"/>
        <pt x="75" y="300" on="0"/>
        <pt x="75" y="410" on="1"/>
        <pt x="75" y="520" on="0"/>
        <pt x="306" y="520" on="1"/>
        <pt x="443" y="520" on="0"/>
        <pt x="499" y="463" on="1"/>
        <pt x="512" y="488" on="0"/>
        <pt x="519" y="520" on="1"/>
        <pt x="586" y="520" on="1"/>
        <pt x="569" y="446" on="0"/>
        <pt x="532" y="397" on="1"/>
        <pt x="536" y="380" on="0"/>
        <pt x="536" y="360" on="1"/>
        <pt x="536" y="100" on="1"/>
        <pt x="536" y="0" on="0"/>
        <pt x="426" y="0" on="1"/>
        <pt x="342" y="0" on="0"/>
        <pt x="329" y="94" on="1"/>
        <pt x="313" y="197" on="0"/>
        <pt x="233" y="197" on="1"/>
        <pt x="157" y="197" on="0"/>
        <pt x="157" y="146" on="1"/>
        <pt x="177" y="160" on="0"/>
        <pt x="202" y="160" on="1"/>
        <pt x="235" y="160" on="0"/>
        <pt x="282" y="113" on="0"/>
        <pt x="282" y="80" on="1"/>
        <pt x="282" y="47" on="0"/>
        <pt x="235" y="0" on="0"/>
        <pt x="202" y="0" on="1"/>
        <pt x="75" y="0" on="0"/>
        <pt x="75" y="107" on="1"/>
        <pt x="75" y="146" on="1"/>
        <pt x="75" y="263" on="0"/>
        <pt x="233" y="263" on="1"/>
      </contour>
      <contour>
        <pt x="444" y="402" on="1"/>
        <pt x="416" y="454" on="0"/>
        <pt x="306" y="454" on="1"/>
        <pt x="157" y="454" on="0"/>
        <pt x="157" y="410" on="1"/>
        <pt x="157" y="366" on="0"/>
        <pt x="306" y="366" on="1"/>
        <pt x="392" y="366" on="0"/>
      </contour>
    </TTGlyph>
    <TTGlyph name="u0EAB" xMin="60" yMin="0" xMax="675" yMax="520">
      <contour>
        <pt x="140" y="470" on="1"/>
        <pt x="127" y="470" on="0"/>
        <pt x="110" y="453" on="0"/>
        <pt x="110" y="440" on="1"/>
        <pt x="110" y="428" on="0"/>
        <pt x="127" y="410" on="0"/>
        <pt x="140" y="410" on="1"/>
        <pt x="152" y="410" on="0"/>
        <pt x="170" y="428" on="0"/>
        <pt x="170" y="440" on="1"/>
        <pt x="170" y="453" on="0"/>
        <pt x="152" y="470" on="0"/>
      </contour>
      <contour>
        <pt x="426" y="160" on="1"/>
        <pt x="426" y="0" on="0"/>
        <pt x="251" y="0" on="1"/>
        <pt x="75" y="0" on="0"/>
        <pt x="75" y="160" on="1"/>
        <pt x="75" y="247" on="0"/>
        <pt x="139" y="312" on="1"/>
        <pt x="155" y="329" on="0"/>
        <pt x="162" y="363" on="1"/>
        <pt x="152" y="360" on="0"/>
        <pt x="140" y="360" on="1"/>
        <pt x="107" y="360" on="0"/>
        <pt x="60" y="407" on="0"/>
        <pt x="60" y="440" on="1"/>
        <pt x="60" y="474" on="0"/>
        <pt x="107" y="520" on="0"/>
        <pt x="140" y="520" on="1"/>
        <pt x="249" y="520" on="0"/>
        <pt x="249" y="420" on="1"/>
        <pt x="249" y="307" on="0"/>
        <pt x="197" y="254" on="1"/>
        <pt x="157" y="213" on="0"/>
        <pt x="157" y="160" on="1"/>
        <pt x="157" y="66" on="0"/>
        <pt x="251" y="66" on="1"/>
        <pt x="344" y="66" on="0"/>
        <pt x="344" y="160" on="1"/>
        <pt x="344" y="380" on="1"/>
        <pt x="344" y="434" on="0"/>
        <pt x="296" y="464" on="1"/>
        <pt x="336" y="520" on="1"/>
        <pt x="364" y="503" on="0"/>
        <pt x="383" y="483" on="1"/>
        <pt x="424" y="520" on="0"/>
        <pt x="510" y="520" on="1"/>
        <pt x="675" y="520" on="0"/>
        <pt x="675" y="380" on="1"/>
        <pt x="675" y="0" on="1"/>
        <pt x="593" y="0" on="1"/>
        <pt x="593" y="380" on="1"/>
        <pt x="593" y="454" on="0"/>
        <pt x="510" y="454" on="1"/>
        <pt x="426" y="454" on="0"/>
        <pt x="426" y="380" on="1"/>
      </contour>
    </TTGlyph>
    <TTGlyph name="u0EAD" xMin="75" yMin="0" xMax="536" yMax="520">
      <contour>
        <pt x="202" y="150" on="0"/>
        <pt x="202" y="163" on="1"/>
        <pt x="202" y="175" on="0"/>
        <pt x="184" y="193" on="0"/>
        <pt x="172" y="193" on="1"/>
        <pt x="159" y="193" on="0"/>
        <pt x="142" y="175" on="0"/>
        <pt x="142" y="163" on="1"/>
        <pt x="142" y="150" on="0"/>
        <pt x="159" y="133" on="0"/>
        <pt x="172" y="133" on="1"/>
        <pt x="184" y="133" on="0"/>
      </contour>
      <contour>
        <pt x="157" y="395" on="1"/>
        <pt x="157" y="336" on="0"/>
        <pt x="306" y="336" on="1"/>
        <pt x="423" y="336" on="0"/>
        <pt x="448" y="395" on="1"/>
        <pt x="423" y="454" on="0"/>
        <pt x="306" y="454" on="1"/>
        <pt x="157" y="454" on="0"/>
      </contour>
      <contour>
        <pt x="172" y="243" on="1"/>
        <pt x="205" y="243" on="0"/>
        <pt x="252" y="196" on="0"/>
        <pt x="252" y="163" on="1"/>
        <pt x="252" y="129" on="0"/>
        <pt x="229" y="106" on="1"/>
        <pt x="215" y="93" on="0"/>
        <pt x="198" y="87" on="1"/>
        <pt x="235" y="66" on="0"/>
        <pt x="306" y="66" on="1"/>
        <pt x="454" y="66" on="0"/>
        <pt x="454" y="160" on="1"/>
        <pt x="454" y="296" on="1"/>
        <pt x="398" y="270" on="0"/>
        <pt x="306" y="270" on="1"/>
        <pt x="75" y="270" on="0"/>
        <pt x="75" y="395" on="1"/>
        <pt x="75" y="520" on="0"/>
        <pt x="306" y="520" on="1"/>
        <pt x="536" y="520" on="0"/>
        <pt x="536" y="360" on="1"/>
        <pt x="536" y="160" on="1"/>
        <pt x="536" y="0" on="0"/>
        <pt x="306" y="0" on="1"/>
        <pt x="75" y="0" on="0"/>
        <pt x="75" y="150" on="1"/>
        <pt x="75" y="243" on="0"/>
      </contour>
    </TTGlyph>
    <TTGlyph name="u0EAE" xMin="75" yMin="0" xMax="536" yMax="520">
      <contour>
        <pt x="75" y="243" on="0"/>
        <pt x="172" y="243" on="1"/>
        <pt x="205" y="243" on="0"/>
        <pt x="252" y="196" on="0"/>
        <pt x="252" y="163" on="1"/>
        <pt x="252" y="129" on="0"/>
        <pt x="229" y="106" on="1"/>
        <pt x="215" y="93" on="0"/>
        <pt x="198" y="87" on="1"/>
        <pt x="235" y="66" on="0"/>
        <pt x="306" y="66" on="1"/>
        <pt x="454" y="66" on="0"/>
        <pt x="454" y="160" on="1"/>
        <pt x="454" y="225" on="0"/>
        <pt x="296" y="270" on="1"/>
        <pt x="75" y="333" on="0"/>
        <pt x="75" y="420" on="1"/>
        <pt x="75" y="520" on="0"/>
        <pt x="172" y="520" on="1"/>
        <pt x="202" y="520" on="0"/>
        <pt x="243" y="510" on="1"/>
        <pt x="313" y="492" on="1"/>
        <pt x="378" y="475" on="0"/>
        <pt x="413" y="475" on="1"/>
        <pt x="454" y="475" on="0"/>
        <pt x="454" y="498" on="1"/>
        <pt x="454" y="520" on="1"/>
        <pt x="536" y="520" on="1"/>
        <pt x="536" y="498" on="1"/>
        <pt x="536" y="401" on="0"/>
        <pt x="437" y="401" on="1"/>
        <pt x="403" y="401" on="0"/>
        <pt x="356" y="413" on="1"/>
        <pt x="296" y="428" on="1"/>
        <pt x="227" y="446" on="1"/>
        <pt x="207" y="451" on="0"/>
        <pt x="192" y="451" on="1"/>
        <pt x="157" y="451" on="0"/>
        <pt x="157" y="420" on="1"/>
        <pt x="157" y="378" on="0"/>
        <pt x="314" y="334" on="1"/>
        <pt x="536" y="271" on="0"/>
        <pt x="536" y="160" on="1"/>
        <pt x="536" y="0" on="0"/>
        <pt x="306" y="0" on="1"/>
        <pt x="75" y="0" on="0"/>
        <pt x="75" y="150" on="1"/>
      </contour>
      <contour>
        <pt x="184" y="133" on="0"/>
        <pt x="202" y="150" on="0"/>
        <pt x="202" y="163" on="1"/>
        <pt x="202" y="175" on="0"/>
        <pt x="184" y="193" on="0"/>
        <pt x="172" y="193" on="1"/>
        <pt x="159" y="193" on="0"/>
        <pt x="142" y="175" on="0"/>
        <pt x="142" y="163" on="1"/>
        <pt x="142" y="150" on="0"/>
        <pt x="159" y="133" on="0"/>
        <pt x="172" y="133" on="1"/>
      </contour>
    </TTGlyph>
    <TTGlyph name="u0EAF" xMin="75" yMin="-149" xMax="613" yMax="520">
      <contour>
        <pt x="202" y="427" on="0"/>
        <pt x="202" y="440" on="1"/>
        <pt x="202" y="452" on="0"/>
        <pt x="184" y="470" on="0"/>
        <pt x="172" y="470" on="1"/>
        <pt x="159" y="470" on="0"/>
        <pt x="142" y="452" on="0"/>
        <pt x="142" y="440" on="1"/>
        <pt x="142" y="427" on="0"/>
        <pt x="159" y="410" on="0"/>
        <pt x="172" y="410" on="1"/>
        <pt x="184" y="410" on="0"/>
      </contour>
      <contour>
        <pt x="426" y="302" on="1"/>
        <pt x="356" y="277" on="0"/>
        <pt x="266" y="277" on="1"/>
        <pt x="75" y="277" on="0"/>
        <pt x="75" y="427" on="1"/>
        <pt x="75" y="520" on="0"/>
        <pt x="172" y="520" on="1"/>
        <pt x="205" y="520" on="0"/>
        <pt x="252" y="473" on="0"/>
        <pt x="252" y="440" on="1"/>
        <pt x="252" y="406" on="0"/>
        <pt x="229" y="383" on="1"/>
        <pt x="215" y="370" on="0"/>
        <pt x="198" y="364" on="1"/>
        <pt x="235" y="343" on="0"/>
        <pt x="266" y="343" on="1"/>
        <pt x="435" y="343" on="0"/>
        <pt x="516" y="472" on="1"/>
        <pt x="541" y="520" on="1"/>
        <pt x="613" y="481" on="1"/>
        <pt x="280" y="-149" on="1"/>
        <pt x="207" y="-111" on="1"/>
      </contour>
    </TTGlyph>
    <TTGlyph name="u0EB0" xMin="75" yMin="10" xMax="536" yMax="510">
      <contour>
        <pt x="198" y="86" on="1"/>
        <pt x="221" y="76" on="0"/>
        <pt x="256" y="76" on="1"/>
        <pt x="454" y="76" on="0"/>
        <pt x="454" y="213" on="1"/>
        <pt x="536" y="213" on="1"/>
        <pt x="536" y="10" on="0"/>
        <pt x="256" y="10" on="1"/>
        <pt x="75" y="10" on="0"/>
        <pt x="75" y="153" on="1"/>
        <pt x="75" y="186" on="0"/>
        <pt x="122" y="233" on="0"/>
        <pt x="155" y="233" on="1"/>
        <pt x="188" y="233" on="0"/>
        <pt x="235" y="186" on="0"/>
        <pt x="235" y="153" on="1"/>
        <pt x="235" y="120" on="0"/>
        <pt x="212" y="97" on="1"/>
        <pt x="205" y="90" on="0"/>
      </contour>
      <contour>
        <pt x="155" y="183" on="1"/>
        <pt x="143" y="183" on="0"/>
        <pt x="125" y="166" on="0"/>
        <pt x="125" y="153" on="1"/>
        <pt x="125" y="141" on="0"/>
        <pt x="143" y="123" on="0"/>
        <pt x="155" y="123" on="1"/>
        <pt x="167" y="123" on="0"/>
        <pt x="185" y="141" on="0"/>
        <pt x="185" y="153" on="1"/>
        <pt x="185" y="166" on="0"/>
        <pt x="167" y="183" on="0"/>
      </contour>
      <contour>
        <pt x="198" y="363" on="1"/>
        <pt x="221" y="353" on="0"/>
        <pt x="256" y="353" on="1"/>
        <pt x="454" y="353" on="0"/>
        <pt x="454" y="490" on="1"/>
        <pt x="536" y="490" on="1"/>
        <pt x="536" y="287" on="0"/>
        <pt x="256" y="287" on="1"/>
        <pt x="75" y="287" on="0"/>
        <pt x="75" y="430" on="1"/>
        <pt x="75" y="463" on="0"/>
        <pt x="122" y="510" on="0"/>
        <pt x="155" y="510" on="1"/>
        <pt x="188" y="510" on="0"/>
        <pt x="235" y="463" on="0"/>
        <pt x="235" y="430" on="1"/>
        <pt x="235" y="397" on="0"/>
        <pt x="212" y="374" on="1"/>
        <pt x="205" y="367" on="0"/>
      </contour>
      <contour>
        <pt x="155" y="460" on="1"/>
        <pt x="143" y="460" on="0"/>
        <pt x="125" y="443" on="0"/>
        <pt x="125" y="430" on="1"/>
        <pt x="125" y="418" on="0"/>
        <pt x="143" y="400" on="0"/>
        <pt x="155" y="400" on="1"/>
        <pt x="167" y="400" on="0"/>
        <pt x="185" y="418" on="0"/>
        <pt x="185" y="430" on="1"/>
        <pt x="185" y="443" on="0"/>
        <pt x="167" y="460" on="0"/>
      </contour>
    </TTGlyph>
    <TTGlyph name="u0EB1" xMin="-451" yMin="600" xMax="-20" yMax="823">
      <contour>
        <pt x="-328" y="676" on="1"/>
        <pt x="-305" y="666" on="0"/>
        <pt x="-270" y="666" on="1"/>
        <pt x="-92" y="666" on="0"/>
        <pt x="-92" y="823" on="1"/>
        <pt x="-20" y="823" on="1"/>
        <pt x="-20" y="600" on="0"/>
        <pt x="-270" y="600" on="1"/>
        <pt x="-451" y="600" on="0"/>
        <pt x="-451" y="743" on="1"/>
        <pt x="-451" y="776" on="0"/>
        <pt x="-404" y="823" on="0"/>
        <pt x="-371" y="823" on="1"/>
        <pt x="-338" y="823" on="0"/>
        <pt x="-291" y="776" on="0"/>
        <pt x="-291" y="743" on="1"/>
        <pt x="-291" y="710" on="0"/>
        <pt x="-314" y="687" on="1"/>
        <pt x="-321" y="680" on="0"/>
      </contour>
      <contour>
        <pt x="-371" y="773" on="1"/>
        <pt x="-383" y="773" on="0"/>
        <pt x="-401" y="756" on="0"/>
        <pt x="-401" y="743" on="1"/>
        <pt x="-401" y="731" on="0"/>
        <pt x="-383" y="713" on="0"/>
        <pt x="-371" y="713" on="1"/>
        <pt x="-359" y="713" on="0"/>
        <pt x="-341" y="731" on="0"/>
        <pt x="-341" y="743" on="1"/>
        <pt x="-341" y="756" on="0"/>
        <pt x="-359" y="773" on="0"/>
      </contour>
    </TTGlyph>
    <TTGlyph name="u0EB2" xMin="40" yMin="0" xMax="421" yMax="520">
      <contour>
        <pt x="137" y="387" on="1"/>
        <pt x="124" y="387" on="0"/>
        <pt x="107" y="370" on="0"/>
        <pt x="107" y="357" on="1"/>
        <pt x="107" y="345" on="0"/>
        <pt x="124" y="327" on="0"/>
        <pt x="137" y="327" on="1"/>
        <pt x="149" y="327" on="0"/>
        <pt x="167" y="345" on="0"/>
        <pt x="167" y="357" on="1"/>
        <pt x="167" y="370" on="0"/>
        <pt x="149" y="387" on="0"/>
      </contour>
      <contour>
        <pt x="339" y="0" on="1"/>
        <pt x="339" y="360" on="1"/>
        <pt x="339" y="454" on="0"/>
        <pt x="231" y="454" on="1"/>
        <pt x="180" y="454" on="0"/>
        <pt x="163" y="433" on="1"/>
        <pt x="180" y="427" on="0"/>
        <pt x="194" y="414" on="1"/>
        <pt x="217" y="391" on="0"/>
        <pt x="217" y="357" on="1"/>
        <pt x="217" y="324" on="0"/>
        <pt x="170" y="277" on="0"/>
        <pt x="137" y="277" on="1"/>
        <pt x="40" y="277" on="0"/>
        <pt x="40" y="370" on="1"/>
        <pt x="40" y="520" on="0"/>
        <pt x="231" y="520" on="1"/>
        <pt x="421" y="520" on="0"/>
        <pt x="421" y="360" on="1"/>
        <pt x="421" y="0" on="1"/>
      </contour>
    </TTGlyph>
    <TTGlyph name="u0EB3" xMin="-36" yMin="0" xMax="421" yMax="800">
      <contour>
        <pt x="137" y="387" on="1"/>
        <pt x="124" y="387" on="0"/>
        <pt x="107" y="370" on="0"/>
        <pt x="107" y="357" on="1"/>
        <pt x="107" y="345" on="0"/>
        <pt x="124" y="327" on="0"/>
        <pt x="137" y="327" on="1"/>
        <pt x="149" y="327" on="0"/>
        <pt x="167" y="345" on="0"/>
        <pt x="167" y="357" on="1"/>
        <pt x="167" y="370" on="0"/>
        <pt x="149" y="387" on="0"/>
      </contour>
      <contour>
        <pt x="339" y="0" on="1"/>
        <pt x="339" y="360" on="1"/>
        <pt x="339" y="454" on="0"/>
        <pt x="231" y="454" on="1"/>
        <pt x="180" y="454" on="0"/>
        <pt x="163" y="433" on="1"/>
        <pt x="180" y="427" on="0"/>
        <pt x="194" y="414" on="1"/>
        <pt x="217" y="391" on="0"/>
        <pt x="217" y="357" on="1"/>
        <pt x="217" y="324" on="0"/>
        <pt x="170" y="277" on="0"/>
        <pt x="137" y="277" on="1"/>
        <pt x="40" y="277" on="0"/>
        <pt x="40" y="370" on="1"/>
        <pt x="40" y="520" on="0"/>
        <pt x="231" y="520" on="1"/>
        <pt x="421" y="520" on="0"/>
        <pt x="421" y="360" on="1"/>
        <pt x="421" y="0" on="1"/>
      </contour>
      <contour>
        <pt x="64" y="740" on="1"/>
        <pt x="47" y="740" on="0"/>
        <pt x="24" y="717" on="0"/>
        <pt x="24" y="700" on="1"/>
        <pt x="24" y="684" on="0"/>
        <pt x="47" y="660" on="0"/>
        <pt x="64" y="660" on="1"/>
        <pt x="81" y="660" on="0"/>
        <pt x="104" y="684" on="0"/>
        <pt x="104" y="700" on="1"/>
        <pt x="104" y="717" on="0"/>
        <pt x="81" y="740" on="0"/>
      </contour>
      <contour>
        <pt x="105" y="800" on="0"/>
        <pt x="164" y="742" on="0"/>
        <pt x="164" y="700" on="1"/>
        <pt x="164" y="659" on="0"/>
        <pt x="105" y="600" on="0"/>
        <pt x="64" y="600" on="1"/>
        <pt x="23" y="600" on="0"/>
        <pt x="-36" y="659" on="0"/>
        <pt x="-36" y="700" on="1"/>
        <pt x="-36" y="742" on="0"/>
        <pt x="23" y="800" on="0"/>
        <pt x="64" y="800" on="1"/>
      </contour>
    </TTGlyph>
    <TTGlyph name="u0EB4" xMin="-475" yMin="580" xMax="-75" yMax="805">
      <contour>
        <pt x="-275" y="805" on="1"/>
        <pt x="-75" y="805" on="0"/>
        <pt x="-75" y="687" on="1"/>
        <pt x="-75" y="640" on="0"/>
        <pt x="-133" y="600" on="1"/>
        <pt x="-151" y="588" on="0"/>
        <pt x="-171" y="580" on="1"/>
        <pt x="-198" y="639" on="1"/>
        <pt x="-189" y="643" on="0"/>
        <pt x="-180" y="647" on="1"/>
        <pt x="-141" y="668" on="0"/>
        <pt x="-141" y="687" on="1"/>
        <pt x="-141" y="739" on="0"/>
        <pt x="-275" y="739" on="1"/>
        <pt x="-409" y="739" on="0"/>
        <pt x="-409" y="687" on="1"/>
        <pt x="-409" y="668" on="0"/>
        <pt x="-369" y="647" on="1"/>
        <pt x="-361" y="643" on="0"/>
        <pt x="-352" y="639" on="1"/>
        <pt x="-379" y="580" on="1"/>
        <pt x="-399" y="588" on="0"/>
        <pt x="-416" y="600" on="1"/>
        <pt x="-475" y="640" on="0"/>
        <pt x="-475" y="687" on="1"/>
        <pt x="-475" y="805" on="0"/>
      </contour>
    </TTGlyph>
    <TTGlyph name="u0EB5" xMin="-475" yMin="580" xMax="-21" yMax="805">
      <contour>
        <pt x="-184" y="645" on="1"/>
        <pt x="-182" y="646" on="0"/>
        <pt x="-180" y="647" on="1"/>
        <pt x="-141" y="668" on="0"/>
        <pt x="-141" y="687" on="1"/>
        <pt x="-141" y="739" on="0"/>
        <pt x="-275" y="739" on="1"/>
        <pt x="-409" y="739" on="0"/>
        <pt x="-409" y="687" on="1"/>
        <pt x="-409" y="668" on="0"/>
        <pt x="-369" y="647" on="1"/>
        <pt x="-361" y="643" on="0"/>
        <pt x="-352" y="639" on="1"/>
        <pt x="-379" y="580" on="1"/>
        <pt x="-399" y="588" on="0"/>
        <pt x="-416" y="600" on="1"/>
        <pt x="-475" y="640" on="0"/>
        <pt x="-475" y="687" on="1"/>
        <pt x="-475" y="805" on="0"/>
        <pt x="-275" y="805" on="1"/>
        <pt x="-75" y="805" on="0"/>
        <pt x="-75" y="687" on="1"/>
        <pt x="-75" y="666" on="0"/>
        <pt x="-87" y="646" on="1"/>
        <pt x="-21" y="646" on="1"/>
        <pt x="-21" y="580" on="1"/>
        <pt x="-205" y="580" on="1"/>
        <pt x="-205" y="646" on="1"/>
      </contour>
    </TTGlyph>
    <TTGlyph name="u0EB6" xMin="-475" yMin="580" xMax="-75" yMax="805">
      <contour>
        <pt x="-275" y="805" on="1"/>
        <pt x="-75" y="805" on="0"/>
        <pt x="-75" y="687" on="1"/>
        <pt x="-75" y="640" on="0"/>
        <pt x="-133" y="600" on="1"/>
        <pt x="-151" y="588" on="0"/>
        <pt x="-171" y="580" on="1"/>
        <pt x="-198" y="639" on="1"/>
        <pt x="-189" y="643" on="0"/>
        <pt x="-180" y="647" on="1"/>
        <pt x="-141" y="668" on="0"/>
        <pt x="-141" y="687" on="1"/>
        <pt x="-141" y="739" on="0"/>
        <pt x="-275" y="739" on="1"/>
        <pt x="-409" y="739" on="0"/>
        <pt x="-409" y="687" on="1"/>
        <pt x="-409" y="668" on="0"/>
        <pt x="-369" y="647" on="1"/>
        <pt x="-361" y="643" on="0"/>
        <pt x="-352" y="639" on="1"/>
        <pt x="-379" y="580" on="1"/>
        <pt x="-399" y="588" on="0"/>
        <pt x="-416" y="600" on="1"/>
        <pt x="-475" y="640" on="0"/>
        <pt x="-475" y="687" on="1"/>
        <pt x="-475" y="805" on="0"/>
      </contour>
      <contour>
        <pt x="-259" y="706" on="0"/>
        <pt x="-234" y="682" on="0"/>
        <pt x="-234" y="664" on="1"/>
        <pt x="-234" y="647" on="0"/>
        <pt x="-259" y="622" on="0"/>
        <pt x="-277" y="622" on="1"/>
        <pt x="-295" y="622" on="0"/>
        <pt x="-320" y="647" on="0"/>
        <pt x="-320" y="664" on="1"/>
        <pt x="-320" y="682" on="0"/>
        <pt x="-295" y="706" on="0"/>
        <pt x="-277" y="706" on="1"/>
      </contour>
    </TTGlyph>
    <TTGlyph name="u0EB7" xMin="-475" yMin="580" xMax="-21" yMax="805">
      <contour>
        <pt x="-184" y="645" on="1"/>
        <pt x="-182" y="646" on="0"/>
        <pt x="-180" y="647" on="1"/>
        <pt x="-141" y="668" on="0"/>
        <pt x="-141" y="687" on="1"/>
        <pt x="-141" y="739" on="0"/>
        <pt x="-275" y="739" on="1"/>
        <pt x="-409" y="739" on="0"/>
        <pt x="-409" y="687" on="1"/>
        <pt x="-409" y="668" on="0"/>
        <pt x="-369" y="647" on="1"/>
        <pt x="-361" y="643" on="0"/>
        <pt x="-352" y="639" on="1"/>
        <pt x="-379" y="580" on="1"/>
        <pt x="-399" y="588" on="0"/>
        <pt x="-416" y="600" on="1"/>
        <pt x="-475" y="640" on="0"/>
        <pt x="-475" y="687" on="1"/>
        <pt x="-475" y="805" on="0"/>
        <pt x="-275" y="805" on="1"/>
        <pt x="-75" y="805" on="0"/>
        <pt x="-75" y="687" on="1"/>
        <pt x="-75" y="666" on="0"/>
        <pt x="-87" y="646" on="1"/>
        <pt x="-21" y="646" on="1"/>
        <pt x="-21" y="580" on="1"/>
        <pt x="-205" y="580" on="1"/>
        <pt x="-205" y="646" on="1"/>
      </contour>
      <contour>
        <pt x="-259" y="706" on="0"/>
        <pt x="-234" y="682" on="0"/>
        <pt x="-234" y="664" on="1"/>
        <pt x="-234" y="647" on="0"/>
        <pt x="-259" y="622" on="0"/>
        <pt x="-277" y="622" on="1"/>
        <pt x="-295" y="622" on="0"/>
        <pt x="-320" y="647" on="0"/>
        <pt x="-320" y="664" on="1"/>
        <pt x="-320" y="682" on="0"/>
        <pt x="-295" y="706" on="0"/>
        <pt x="-277" y="706" on="1"/>
      </contour>
    </TTGlyph>
    <TTGlyph name="u0EB8" xMin="-258" yMin="-274" xMax="-108" yMax="-40">
      <contour>
        <pt x="-183" y="-90" on="1"/>
        <pt x="-193" y="-90" on="0"/>
        <pt x="-208" y="-104" on="0"/>
        <pt x="-208" y="-115" on="1"/>
        <pt x="-208" y="-125" on="0"/>
        <pt x="-193" y="-140" on="0"/>
        <pt x="-183" y="-140" on="1"/>
        <pt x="-172" y="-140" on="0"/>
        <pt x="-158" y="-125" on="0"/>
        <pt x="-158" y="-115" on="1"/>
        <pt x="-158" y="-104" on="0"/>
        <pt x="-172" y="-90" on="0"/>
      </contour>
      <contour>
        <pt x="-174" y="-190" on="1"/>
        <pt x="-183" y="-190" on="1"/>
        <pt x="-214" y="-190" on="0"/>
        <pt x="-258" y="-146" on="0"/>
        <pt x="-258" y="-115" on="1"/>
        <pt x="-258" y="-84" on="0"/>
        <pt x="-214" y="-40" on="0"/>
        <pt x="-183" y="-40" on="1"/>
        <pt x="-152" y="-40" on="0"/>
        <pt x="-108" y="-84" on="0"/>
        <pt x="-108" y="-115" on="1"/>
        <pt x="-108" y="-274" on="1"/>
        <pt x="-174" y="-274" on="1"/>
      </contour>
    </TTGlyph>
    <TTGlyph name="u0EB9" xMin="-386" yMin="-274" xMax="-100" yMax="-40">
      <contour>
        <pt x="-311" y="-90" on="1"/>
        <pt x="-321" y="-90" on="0"/>
        <pt x="-336" y="-104" on="0"/>
        <pt x="-336" y="-115" on="1"/>
        <pt x="-336" y="-125" on="0"/>
        <pt x="-321" y="-140" on="0"/>
        <pt x="-311" y="-140" on="1"/>
        <pt x="-300" y="-140" on="0"/>
        <pt x="-286" y="-125" on="0"/>
        <pt x="-286" y="-115" on="1"/>
        <pt x="-286" y="-104" on="0"/>
        <pt x="-300" y="-90" on="0"/>
      </contour>
      <contour>
        <pt x="-201" y="-274" on="1"/>
        <pt x="-302" y="-274" on="0"/>
        <pt x="-302" y="-190" on="1"/>
        <pt x="-311" y="-190" on="1"/>
        <pt x="-342" y="-190" on="0"/>
        <pt x="-386" y="-146" on="0"/>
        <pt x="-386" y="-115" on="1"/>
        <pt x="-386" y="-84" on="0"/>
        <pt x="-342" y="-40" on="0"/>
        <pt x="-311" y="-40" on="1"/>
        <pt x="-280" y="-40" on="0"/>
        <pt x="-236" y="-84" on="0"/>
        <pt x="-236" y="-115" on="1"/>
        <pt x="-236" y="-190" on="1"/>
        <pt x="-236" y="-208" on="0"/>
        <pt x="-201" y="-208" on="1"/>
        <pt x="-166" y="-208" on="0"/>
        <pt x="-166" y="-180" on="1"/>
        <pt x="-166" y="-40" on="1"/>
        <pt x="-100" y="-40" on="1"/>
        <pt x="-100" y="-180" on="1"/>
        <pt x="-100" y="-274" on="0"/>
      </contour>
    </TTGlyph>
    <TTGlyph name="u0EBB" xMin="-451" yMin="600" xMax="-20" yMax="823">
      <contour>
        <pt x="-321" y="743" on="0"/>
        <pt x="-314" y="737" on="1"/>
        <pt x="-291" y="713" on="0"/>
        <pt x="-291" y="680" on="1"/>
        <pt x="-291" y="647" on="0"/>
        <pt x="-338" y="600" on="0"/>
        <pt x="-371" y="600" on="1"/>
        <pt x="-404" y="600" on="0"/>
        <pt x="-451" y="647" on="0"/>
        <pt x="-451" y="680" on="1"/>
        <pt x="-451" y="823" on="0"/>
        <pt x="-270" y="823" on="1"/>
        <pt x="-20" y="823" on="0"/>
        <pt x="-20" y="600" on="1"/>
        <pt x="-92" y="600" on="1"/>
        <pt x="-92" y="757" on="0"/>
        <pt x="-270" y="757" on="1"/>
        <pt x="-305" y="757" on="0"/>
        <pt x="-328" y="747" on="1"/>
      </contour>
      <contour>
        <pt x="-359" y="650" on="0"/>
        <pt x="-341" y="667" on="0"/>
        <pt x="-341" y="680" on="1"/>
        <pt x="-341" y="692" on="0"/>
        <pt x="-359" y="710" on="0"/>
        <pt x="-371" y="710" on="1"/>
        <pt x="-383" y="710" on="0"/>
        <pt x="-401" y="692" on="0"/>
        <pt x="-401" y="680" on="1"/>
        <pt x="-401" y="667" on="0"/>
        <pt x="-383" y="650" on="0"/>
        <pt x="-371" y="650" on="1"/>
      </contour>
    </TTGlyph>
    <TTGlyph name="u0EBC" xMin="-524" yMin="-253" xMax="-74" yMax="-49">
      <contour>
        <pt x="-449" y="-143" on="1"/>
        <pt x="-461" y="-143" on="0"/>
        <pt x="-477" y="-160" on="0"/>
        <pt x="-477" y="-173" on="1"/>
        <pt x="-477" y="-185" on="0"/>
        <pt x="-461" y="-203" on="0"/>
        <pt x="-449" y="-203" on="1"/>
        <pt x="-437" y="-203" on="0"/>
        <pt x="-422" y="-185" on="0"/>
        <pt x="-422" y="-173" on="1"/>
        <pt x="-422" y="-160" on="0"/>
        <pt x="-437" y="-143" on="0"/>
      </contour>
      <contour>
        <pt x="-425" y="-49" on="1"/>
        <pt x="-326" y="-49" on="0"/>
        <pt x="-288" y="-131" on="1"/>
        <pt x="-262" y="-187" on="0"/>
        <pt x="-231" y="-187" on="1"/>
        <pt x="-196" y="-187" on="0"/>
        <pt x="-161" y="-111" on="1"/>
        <pt x="-141" y="-67" on="1"/>
        <pt x="-74" y="-99" on="1"/>
        <pt x="-94" y="-143" on="1"/>
        <pt x="-145" y="-253" on="0"/>
        <pt x="-231" y="-253" on="1"/>
        <pt x="-306" y="-253" on="0"/>
        <pt x="-347" y="-163" on="1"/>
        <pt x="-362" y="-130" on="0"/>
        <pt x="-393" y="-120" on="1"/>
        <pt x="-375" y="-142" on="0"/>
        <pt x="-375" y="-173" on="1"/>
        <pt x="-375" y="-206" on="0"/>
        <pt x="-418" y="-253" on="0"/>
        <pt x="-449" y="-253" on="1"/>
        <pt x="-480" y="-253" on="0"/>
        <pt x="-524" y="-206" on="0"/>
        <pt x="-524" y="-173" on="1"/>
        <pt x="-524" y="-49" on="0"/>
      </contour>
    </TTGlyph>
    <TTGlyph name="u0EBD" xMin="-151" yMin="-270" xMax="291" yMax="520">
      <contour>
        <pt x="-151" y="-120" on="1"/>
        <pt x="-151" y="-88" on="0"/>
        <pt x="-106" y="-40" on="0"/>
        <pt x="-71" y="-40" on="1"/>
        <pt x="-39" y="-40" on="0"/>
        <pt x="9" y="-88" on="0"/>
        <pt x="9" y="-120" on="1"/>
        <pt x="9" y="-155" on="0"/>
        <pt x="-15" y="-177" on="1"/>
        <pt x="-27" y="-188" on="0"/>
        <pt x="-40" y="-194" on="1"/>
        <pt x="-12" y="-204" on="0"/>
        <pt x="31" y="-204" on="1"/>
        <pt x="139" y="-204" on="0"/>
        <pt x="139" y="-110" on="1"/>
        <pt x="139" y="360" on="1"/>
        <pt x="139" y="424" on="0"/>
        <pt x="31" y="454" on="1"/>
        <pt x="31" y="520" on="1"/>
        <pt x="291" y="520" on="1"/>
        <pt x="291" y="454" on="1"/>
        <pt x="185" y="454" on="1"/>
        <pt x="221" y="416" on="0"/>
        <pt x="221" y="360" on="1"/>
        <pt x="221" y="-110" on="1"/>
        <pt x="221" y="-270" on="0"/>
        <pt x="31" y="-270" on="1"/>
        <pt x="-151" y="-270" on="0"/>
      </contour>
      <contour>
        <pt x="-41" y="-120" on="1"/>
        <pt x="-41" y="-108" on="0"/>
        <pt x="-59" y="-90" on="0"/>
        <pt x="-71" y="-90" on="1"/>
        <pt x="-84" y="-90" on="0"/>
        <pt x="-101" y="-108" on="0"/>
        <pt x="-101" y="-120" on="1"/>
        <pt x="-101" y="-133" on="0"/>
        <pt x="-84" y="-150" on="0"/>
        <pt x="-71" y="-150" on="1"/>
        <pt x="-59" y="-150" on="0"/>
        <pt x="-41" y="-133" on="0"/>
      </contour>
    </TTGlyph>
    <TTGlyph name="u0EC0" xMin="75" yMin="0" xMax="282" yMax="520">
      <contour>
        <pt x="202" y="110" on="1"/>
        <pt x="190" y="110" on="0"/>
        <pt x="172" y="92" on="0"/>
        <pt x="172" y="80" on="1"/>
        <pt x="172" y="67" on="0"/>
        <pt x="190" y="50" on="0"/>
        <pt x="202" y="50" on="1"/>
        <pt x="215" y="50" on="0"/>
        <pt x="232" y="67" on="0"/>
        <pt x="232" y="80" on="1"/>
        <pt x="232" y="92" on="0"/>
        <pt x="215" y="110" on="0"/>
      </contour>
      <contour>
        <pt x="252" y="454" on="1"/>
        <pt x="157" y="454" on="0"/>
        <pt x="157" y="390" on="1"/>
        <pt x="157" y="146" on="1"/>
        <pt x="177" y="160" on="0"/>
        <pt x="202" y="160" on="1"/>
        <pt x="235" y="160" on="0"/>
        <pt x="282" y="113" on="0"/>
        <pt x="282" y="80" on="1"/>
        <pt x="282" y="47" on="0"/>
        <pt x="235" y="0" on="0"/>
        <pt x="202" y="0" on="1"/>
        <pt x="75" y="0" on="0"/>
        <pt x="75" y="107" on="1"/>
        <pt x="75" y="390" on="1"/>
        <pt x="75" y="520" on="0"/>
        <pt x="252" y="520" on="1"/>
      </contour>
    </TTGlyph>
    <TTGlyph name="u0EC1" xMin="75" yMin="0" xMax="542" yMax="520">
      <contour>
        <pt x="462" y="110" on="1"/>
        <pt x="450" y="110" on="0"/>
        <pt x="432" y="92" on="0"/>
        <pt x="432" y="80" on="1"/>
        <pt x="432" y="67" on="0"/>
        <pt x="450" y="50" on="0"/>
        <pt x="462" y="50" on="1"/>
        <pt x="475" y="50" on="0"/>
        <pt x="492" y="67" on="0"/>
        <pt x="492" y="80" on="1"/>
        <pt x="492" y="92" on="0"/>
        <pt x="475" y="110" on="0"/>
      </contour>
      <contour>
        <pt x="512" y="454" on="1"/>
        <pt x="417" y="454" on="0"/>
        <pt x="417" y="390" on="1"/>
        <pt x="417" y="146" on="1"/>
        <pt x="437" y="160" on="0"/>
        <pt x="462" y="160" on="1"/>
        <pt x="495" y="160" on="0"/>
        <pt x="542" y="113" on="0"/>
        <pt x="542" y="80" on="1"/>
        <pt x="542" y="47" on="0"/>
        <pt x="495" y="0" on="0"/>
        <pt x="462" y="0" on="1"/>
        <pt x="335" y="0" on="0"/>
        <pt x="335" y="107" on="1"/>
        <pt x="335" y="390" on="1"/>
        <pt x="335" y="520" on="0"/>
        <pt x="512" y="520" on="1"/>
      </contour>
      <contour>
        <pt x="202" y="110" on="1"/>
        <pt x="190" y="110" on="0"/>
        <pt x="172" y="92" on="0"/>
        <pt x="172" y="80" on="1"/>
        <pt x="172" y="67" on="0"/>
        <pt x="190" y="50" on="0"/>
        <pt x="202" y="50" on="1"/>
        <pt x="215" y="50" on="0"/>
        <pt x="232" y="67" on="0"/>
        <pt x="232" y="80" on="1"/>
        <pt x="232" y="92" on="0"/>
        <pt x="215" y="110" on="0"/>
      </contour>
      <contour>
        <pt x="252" y="454" on="1"/>
        <pt x="157" y="454" on="0"/>
        <pt x="157" y="390" on="1"/>
        <pt x="157" y="146" on="1"/>
        <pt x="177" y="160" on="0"/>
        <pt x="202" y="160" on="1"/>
        <pt x="235" y="160" on="0"/>
        <pt x="282" y="113" on="0"/>
        <pt x="282" y="80" on="1"/>
        <pt x="282" y="47" on="0"/>
        <pt x="235" y="0" on="0"/>
        <pt x="202" y="0" on="1"/>
        <pt x="75" y="0" on="0"/>
        <pt x="75" y="107" on="1"/>
        <pt x="75" y="390" on="1"/>
        <pt x="75" y="520" on="0"/>
        <pt x="252" y="520" on="1"/>
      </contour>
    </TTGlyph>
    <TTGlyph name="u0EC2" xMin="-31" yMin="0" xMax="312" yMax="766">
      <contour>
        <pt x="202" y="110" on="1"/>
        <pt x="190" y="110" on="0"/>
        <pt x="172" y="92" on="0"/>
        <pt x="172" y="80" on="1"/>
        <pt x="172" y="67" on="0"/>
        <pt x="190" y="50" on="0"/>
        <pt x="202" y="50" on="1"/>
        <pt x="215" y="50" on="0"/>
        <pt x="232" y="67" on="0"/>
        <pt x="232" y="80" on="1"/>
        <pt x="232" y="92" on="0"/>
        <pt x="215" y="110" on="0"/>
      </contour>
      <contour>
        <pt x="140" y="649" on="1"/>
        <pt x="92" y="684" on="1"/>
        <pt x="75" y="697" on="0"/>
        <pt x="63" y="697" on="1"/>
        <pt x="52" y="697" on="0"/>
        <pt x="44" y="686" on="1"/>
        <pt x="39" y="679" on="0"/>
        <pt x="39" y="671" on="1"/>
        <pt x="39" y="656" on="0"/>
        <pt x="60" y="640" on="1"/>
        <pt x="225" y="519" on="1"/>
        <pt x="209" y="450" on="1"/>
        <pt x="157" y="437" on="0"/>
        <pt x="157" y="390" on="1"/>
        <pt x="157" y="146" on="1"/>
        <pt x="177" y="160" on="0"/>
        <pt x="202" y="160" on="1"/>
        <pt x="235" y="160" on="0"/>
        <pt x="282" y="113" on="0"/>
        <pt x="282" y="80" on="1"/>
        <pt x="282" y="47" on="0"/>
        <pt x="235" y="0" on="0"/>
        <pt x="202" y="0" on="1"/>
        <pt x="75" y="0" on="0"/>
        <pt x="75" y="107" on="1"/>
        <pt x="75" y="390" on="1"/>
        <pt x="75" y="469" on="0"/>
        <pt x="140" y="500" on="1"/>
        <pt x="21" y="587" on="1"/>
        <pt x="-31" y="625" on="0"/>
        <pt x="-31" y="668" on="1"/>
        <pt x="-31" y="696" on="0"/>
        <pt x="-9" y="725" on="1"/>
        <pt x="21" y="766" on="0"/>
        <pt x="60" y="766" on="1"/>
        <pt x="92" y="766" on="0"/>
        <pt x="131" y="737" on="1"/>
        <pt x="180" y="701" on="1"/>
        <pt x="229" y="665" on="0"/>
        <pt x="312" y="665" on="1"/>
        <pt x="312" y="599" on="1"/>
        <pt x="208" y="599" on="0"/>
      </contour>
    </TTGlyph>
    <TTGlyph name="u0EC3" xMin="-37" yMin="0" xMax="313" yMax="766">
      <contour>
        <pt x="202" y="110" on="1"/>
        <pt x="190" y="110" on="0"/>
        <pt x="172" y="92" on="0"/>
        <pt x="172" y="80" on="1"/>
        <pt x="172" y="67" on="0"/>
        <pt x="190" y="50" on="0"/>
        <pt x="202" y="50" on="1"/>
        <pt x="215" y="50" on="0"/>
        <pt x="232" y="67" on="0"/>
        <pt x="232" y="80" on="1"/>
        <pt x="232" y="92" on="0"/>
        <pt x="215" y="110" on="0"/>
      </contour>
      <contour>
        <pt x="157" y="390" on="1"/>
        <pt x="157" y="146" on="1"/>
        <pt x="177" y="160" on="0"/>
        <pt x="202" y="160" on="1"/>
        <pt x="235" y="160" on="0"/>
        <pt x="282" y="113" on="0"/>
        <pt x="282" y="80" on="1"/>
        <pt x="282" y="47" on="0"/>
        <pt x="235" y="0" on="0"/>
        <pt x="202" y="0" on="1"/>
        <pt x="75" y="0" on="0"/>
        <pt x="75" y="107" on="1"/>
        <pt x="75" y="390" on="1"/>
        <pt x="75" y="461" on="0"/>
        <pt x="157" y="501" on="1"/>
        <pt x="247" y="547" on="0"/>
        <pt x="247" y="591" on="1"/>
        <pt x="247" y="636" on="0"/>
        <pt x="183" y="700" on="0"/>
        <pt x="138" y="700" on="1"/>
        <pt x="93" y="700" on="0"/>
        <pt x="29" y="636" on="0"/>
        <pt x="29" y="591" on="1"/>
        <pt x="29" y="551" on="0"/>
        <pt x="54" y="521" on="1"/>
        <pt x="4" y="479" on="1"/>
        <pt x="-37" y="527" on="0"/>
        <pt x="-37" y="591" on="1"/>
        <pt x="-37" y="664" on="0"/>
        <pt x="65" y="766" on="0"/>
        <pt x="138" y="766" on="1"/>
        <pt x="210" y="766" on="0"/>
        <pt x="313" y="664" on="0"/>
        <pt x="313" y="591" on="1"/>
        <pt x="313" y="511" on="0"/>
        <pt x="191" y="444" on="1"/>
        <pt x="157" y="425" on="0"/>
      </contour>
    </TTGlyph>
    <TTGlyph name="u0EC4" xMin="-100" yMin="0" xMax="313" yMax="759">
      <contour>
        <pt x="202" y="110" on="1"/>
        <pt x="190" y="110" on="0"/>
        <pt x="172" y="92" on="0"/>
        <pt x="172" y="80" on="1"/>
        <pt x="172" y="67" on="0"/>
        <pt x="190" y="50" on="0"/>
        <pt x="202" y="50" on="1"/>
        <pt x="215" y="50" on="0"/>
        <pt x="232" y="67" on="0"/>
        <pt x="232" y="80" on="1"/>
        <pt x="232" y="92" on="0"/>
        <pt x="215" y="110" on="0"/>
      </contour>
      <contour>
        <pt x="157" y="419" on="0"/>
        <pt x="157" y="390" on="1"/>
        <pt x="157" y="146" on="1"/>
        <pt x="177" y="160" on="0"/>
        <pt x="202" y="160" on="1"/>
        <pt x="235" y="160" on="0"/>
        <pt x="282" y="113" on="0"/>
        <pt x="282" y="80" on="1"/>
        <pt x="282" y="47" on="0"/>
        <pt x="235" y="0" on="0"/>
        <pt x="202" y="0" on="1"/>
        <pt x="75" y="0" on="0"/>
        <pt x="75" y="107" on="1"/>
        <pt x="75" y="390" on="1"/>
        <pt x="75" y="448" on="0"/>
        <pt x="219" y="533" on="1"/>
        <pt x="244" y="547" on="0"/>
        <pt x="244" y="563" on="1"/>
        <pt x="244" y="570" on="0"/>
        <pt x="240" y="577" on="1"/>
        <pt x="233" y="589" on="0"/>
        <pt x="220" y="589" on="1"/>
        <pt x="208" y="589" on="0"/>
        <pt x="192" y="579" on="1"/>
        <pt x="130" y="543" on="1"/>
        <pt x="106" y="529" on="0"/>
        <pt x="82" y="529" on="1"/>
        <pt x="13" y="529" on="0"/>
        <pt x="-56" y="645" on="1"/>
        <pt x="-100" y="719" on="1"/>
        <pt x="-33" y="759" on="1"/>
        <pt x="11" y="685" on="1"/>
        <pt x="62" y="598" on="0"/>
        <pt x="88" y="598" on="1"/>
        <pt x="92" y="598" on="0"/>
        <pt x="96" y="600" on="1"/>
        <pt x="158" y="636" on="1"/>
        <pt x="195" y="658" on="0"/>
        <pt x="224" y="658" on="1"/>
        <pt x="268" y="658" on="0"/>
        <pt x="297" y="610" on="1"/>
        <pt x="313" y="583" on="0"/>
        <pt x="313" y="558" on="1"/>
        <pt x="313" y="511" on="0"/>
        <pt x="253" y="476" on="1"/>
      </contour>
    </TTGlyph>
    <TTGlyph name="u0EC6" xMin="40" yMin="-230" xMax="535" yMax="520">
      <contour>
        <pt x="120" y="395" on="1"/>
        <pt x="107" y="395" on="0"/>
        <pt x="90" y="378" on="0"/>
        <pt x="90" y="365" on="1"/>
        <pt x="90" y="353" on="0"/>
        <pt x="107" y="335" on="0"/>
        <pt x="120" y="335" on="1"/>
        <pt x="132" y="335" on="0"/>
        <pt x="150" y="353" on="0"/>
        <pt x="150" y="365" on="1"/>
        <pt x="150" y="378" on="0"/>
        <pt x="132" y="395" on="0"/>
      </contour>
      <contour>
        <pt x="453" y="400" on="1"/>
        <pt x="453" y="454" on="0"/>
        <pt x="416" y="454" on="1"/>
        <pt x="382" y="454" on="0"/>
        <pt x="369" y="429" on="1"/>
        <pt x="330" y="354" on="0"/>
        <pt x="283" y="354" on="1"/>
        <pt x="236" y="354" on="0"/>
        <pt x="197" y="429" on="1"/>
        <pt x="184" y="454" on="0"/>
        <pt x="150" y="454" on="1"/>
        <pt x="130" y="454" on="0"/>
        <pt x="119" y="445" on="1"/>
        <pt x="120" y="445" on="1"/>
        <pt x="153" y="445" on="0"/>
        <pt x="200" y="398" on="0"/>
        <pt x="200" y="365" on="1"/>
        <pt x="200" y="332" on="0"/>
        <pt x="153" y="285" on="0"/>
        <pt x="120" y="285" on="1"/>
        <pt x="86" y="285" on="0"/>
        <pt x="40" y="332" on="0"/>
        <pt x="40" y="365" on="1"/>
        <pt x="40" y="400" on="1"/>
        <pt x="40" y="520" on="0"/>
        <pt x="150" y="520" on="1"/>
        <pt x="223" y="520" on="0"/>
        <pt x="255" y="459" on="1"/>
        <pt x="275" y="420" on="0"/>
        <pt x="283" y="420" on="1"/>
        <pt x="291" y="420" on="0"/>
        <pt x="311" y="459" on="1"/>
        <pt x="343" y="520" on="0"/>
        <pt x="416" y="520" on="1"/>
        <pt x="535" y="520" on="0"/>
        <pt x="535" y="400" on="1"/>
        <pt x="535" y="-70" on="1"/>
        <pt x="535" y="-230" on="0"/>
        <pt x="305" y="-230" on="1"/>
        <pt x="137" y="-230" on="0"/>
        <pt x="91" y="-146" on="1"/>
        <pt x="162" y="-103" on="1"/>
        <pt x="185" y="-164" on="0"/>
        <pt x="305" y="-164" on="1"/>
        <pt x="453" y="-164" on="0"/>
        <pt x="453" y="-70" on="1"/>
      </contour>
    </TTGlyph>
    <TTGlyph name="u0EC8" xMin="-308" yMin="814" xMax="-242" yMax="983">
      <contour>
        <pt x="-242" y="983" on="1"/>
        <pt x="-242" y="814" on="1"/>
        <pt x="-308" y="814" on="1"/>
        <pt x="-308" y="983" on="1"/>
      </contour>
    </TTGlyph>
    <TTGlyph name="u0EC8.b" xMin="-308" yMin="580" xMax="-242" yMax="805">
      <contour>
        <pt x="-242" y="805" on="1"/>
        <pt x="-242" y="580" on="1"/>
        <pt x="-308" y="580" on="1"/>
        <pt x="-308" y="805" on="1"/>
      </contour>
    </TTGlyph>
    <TTGlyph name="u0EC9" xMin="-370" yMin="809" xMax="-40" yMax="984">
      <contour>
        <pt x="-370" y="809" on="1"/>
        <pt x="-370" y="875" on="1"/>
        <pt x="-333" y="875" on="1"/>
        <pt x="-307" y="875" on="0"/>
        <pt x="-307" y="897" on="1"/>
        <pt x="-307" y="918" on="0"/>
        <pt x="-333" y="918" on="1"/>
        <pt x="-370" y="918" on="1"/>
        <pt x="-370" y="984" on="1"/>
        <pt x="-333" y="984" on="1"/>
        <pt x="-241" y="984" on="0"/>
        <pt x="-241" y="897" on="1"/>
        <pt x="-241" y="885" on="0"/>
        <pt x="-243" y="875" on="1"/>
        <pt x="-148" y="880" on="0"/>
        <pt x="-117" y="947" on="1"/>
        <pt x="-100" y="984" on="1"/>
        <pt x="-70" y="970" on="1"/>
        <pt x="-40" y="956" on="1"/>
        <pt x="-57" y="919" on="1"/>
        <pt x="-109" y="809" on="0"/>
        <pt x="-256" y="809" on="1"/>
      </contour>
    </TTGlyph>
    <TTGlyph name="u0EC9.b" xMin="-425" yMin="580" xMax="-23" yMax="805">
      <contour>
        <pt x="-345" y="755" on="1"/>
        <pt x="-358" y="755" on="0"/>
        <pt x="-375" y="738" on="0"/>
        <pt x="-375" y="725" on="1"/>
        <pt x="-375" y="713" on="0"/>
        <pt x="-358" y="695" on="0"/>
        <pt x="-345" y="695" on="1"/>
        <pt x="-333" y="695" on="0"/>
        <pt x="-315" y="713" on="0"/>
        <pt x="-315" y="725" on="1"/>
        <pt x="-315" y="738" on="0"/>
        <pt x="-333" y="755" on="0"/>
      </contour>
      <contour>
        <pt x="-281" y="646" on="1"/>
        <pt x="-239" y="646" on="1"/>
        <pt x="-131" y="646" on="0"/>
        <pt x="-83" y="805" on="1"/>
        <pt x="-23" y="777" on="1"/>
        <pt x="-92" y="580" on="0"/>
        <pt x="-239" y="580" on="1"/>
        <pt x="-425" y="580" on="1"/>
        <pt x="-425" y="646" on="1"/>
        <pt x="-397" y="646" on="0"/>
        <pt x="-376" y="651" on="1"/>
        <pt x="-391" y="657" on="0"/>
        <pt x="-402" y="669" on="1"/>
        <pt x="-425" y="692" on="0"/>
        <pt x="-425" y="725" on="1"/>
        <pt x="-425" y="759" on="0"/>
        <pt x="-379" y="805" on="0"/>
        <pt x="-345" y="805" on="1"/>
        <pt x="-312" y="805" on="0"/>
        <pt x="-265" y="759" on="0"/>
        <pt x="-265" y="725" on="1"/>
        <pt x="-265" y="723" on="1"/>
        <pt x="-265" y="677" on="0"/>
      </contour>
    </TTGlyph>
    <TTGlyph name="u0ECA" xMin="-399" yMin="809" xMax="33" yMax="984">
      <contour>
        <pt x="-59" y="906" on="1"/>
        <pt x="-23" y="937" on="0"/>
        <pt x="-23" y="984" on="1"/>
        <pt x="33" y="984" on="1"/>
        <pt x="33" y="881" on="0"/>
        <pt x="-83" y="832" on="1"/>
        <pt x="-140" y="809" on="1"/>
        <pt x="-163" y="855" on="1"/>
        <pt x="-156" y="858" on="0"/>
        <pt x="-148" y="861" on="1"/>
        <pt x="-115" y="877" on="0"/>
        <pt x="-115" y="892" on="1"/>
        <pt x="-115" y="933" on="0"/>
        <pt x="-155" y="933" on="1"/>
        <pt x="-201" y="894" on="1"/>
        <pt x="-214" y="882" on="0"/>
        <pt x="-229" y="882" on="1"/>
        <pt x="-243" y="882" on="0"/>
        <pt x="-257" y="894" on="1"/>
        <pt x="-303" y="933" on="1"/>
        <pt x="-343" y="933" on="0"/>
        <pt x="-343" y="892" on="1"/>
        <pt x="-343" y="877" on="0"/>
        <pt x="-309" y="861" on="1"/>
        <pt x="-302" y="858" on="0"/>
        <pt x="-294" y="855" on="1"/>
        <pt x="-317" y="809" on="1"/>
        <pt x="-334" y="815" on="0"/>
        <pt x="-349" y="825" on="1"/>
        <pt x="-399" y="856" on="0"/>
        <pt x="-399" y="892" on="1"/>
        <pt x="-399" y="984" on="0"/>
        <pt x="-314" y="984" on="1"/>
        <pt x="-288" y="984" on="1"/>
        <pt x="-229" y="930" on="1"/>
        <pt x="-169" y="984" on="1"/>
        <pt x="-144" y="984" on="1"/>
        <pt x="-66" y="984" on="0"/>
      </contour>
    </TTGlyph>
    <TTGlyph name="u0ECA.b" xMin="-475" yMin="580" xMax="33" yMax="805">
      <contour>
        <pt x="-76" y="705" on="1"/>
        <pt x="-33" y="745" on="0"/>
        <pt x="-33" y="805" on="1"/>
        <pt x="33" y="805" on="1"/>
        <pt x="33" y="672" on="0"/>
        <pt x="-103" y="610" on="1"/>
        <pt x="-171" y="580" on="1"/>
        <pt x="-198" y="639" on="1"/>
        <pt x="-189" y="643" on="0"/>
        <pt x="-180" y="647" on="1"/>
        <pt x="-141" y="668" on="0"/>
        <pt x="-141" y="687" on="1"/>
        <pt x="-141" y="739" on="0"/>
        <pt x="-188" y="739" on="1"/>
        <pt x="-242" y="689" on="1"/>
        <pt x="-258" y="674" on="0"/>
        <pt x="-275" y="674" on="1"/>
        <pt x="-291" y="674" on="0"/>
        <pt x="-308" y="689" on="1"/>
        <pt x="-362" y="739" on="1"/>
        <pt x="-409" y="739" on="0"/>
        <pt x="-409" y="687" on="1"/>
        <pt x="-409" y="668" on="0"/>
        <pt x="-369" y="647" on="1"/>
        <pt x="-361" y="643" on="0"/>
        <pt x="-352" y="639" on="1"/>
        <pt x="-379" y="580" on="1"/>
        <pt x="-399" y="588" on="0"/>
        <pt x="-416" y="600" on="1"/>
        <pt x="-475" y="640" on="0"/>
        <pt x="-475" y="687" on="1"/>
        <pt x="-475" y="805" on="0"/>
        <pt x="-375" y="805" on="1"/>
        <pt x="-345" y="805" on="1"/>
        <pt x="-275" y="735" on="1"/>
        <pt x="-205" y="805" on="1"/>
        <pt x="-175" y="805" on="1"/>
        <pt x="-83" y="805" on="0"/>
      </contour>
    </TTGlyph>
    <TTGlyph name="u0ECB" xMin="-379" yMin="794" xMax="-170" yMax="984">
      <contour>
        <pt x="-308" y="856" on="1"/>
        <pt x="-379" y="856" on="1"/>
        <pt x="-379" y="922" on="1"/>
        <pt x="-308" y="922" on="1"/>
        <pt x="-308" y="984" on="1"/>
        <pt x="-242" y="984" on="1"/>
        <pt x="-242" y="922" on="1"/>
        <pt x="-170" y="922" on="1"/>
        <pt x="-170" y="856" on="1"/>
        <pt x="-242" y="856" on="1"/>
        <pt x="-242" y="794" on="1"/>
        <pt x="-308" y="794" on="1"/>
      </contour>
    </TTGlyph>
    <TTGlyph name="u0ECB.b" xMin="-386" yMin="580" xMax="-161" yMax="805">
      <contour>
        <pt x="-307" y="660" on="1"/>
        <pt x="-386" y="660" on="1"/>
        <pt x="-386" y="726" on="1"/>
        <pt x="-307" y="726" on="1"/>
        <pt x="-307" y="805" on="1"/>
        <pt x="-241" y="805" on="1"/>
        <pt x="-241" y="726" on="1"/>
        <pt x="-161" y="726" on="1"/>
        <pt x="-161" y="660" on="1"/>
        <pt x="-241" y="660" on="1"/>
        <pt x="-241" y="580" on="1"/>
        <pt x="-307" y="580" on="1"/>
      </contour>
    </TTGlyph>
    <TTGlyph name="u0ECC" xMin="-354" yMin="809" xMax="-21" yMax="984">
      <contour>
        <pt x="-294" y="860" on="1"/>
        <pt x="-287" y="851" on="0"/>
        <pt x="-275" y="849" on="1"/>
        <pt x="-272" y="848" on="0"/>
        <pt x="-268" y="848" on="1"/>
        <pt x="-260" y="848" on="0"/>
        <pt x="-253" y="851" on="1"/>
        <pt x="-242" y="856" on="0"/>
        <pt x="-238" y="865" on="1"/>
        <pt x="-237" y="868" on="0"/>
        <pt x="-237" y="872" on="1"/>
        <pt x="-237" y="877" on="0"/>
        <pt x="-241" y="883" on="1"/>
        <pt x="-247" y="891" on="0"/>
        <pt x="-259" y="894" on="1"/>
        <pt x="-264" y="895" on="0"/>
        <pt x="-268" y="895" on="1"/>
        <pt x="-276" y="895" on="0"/>
        <pt x="-282" y="891" on="1"/>
        <pt x="-293" y="887" on="0"/>
        <pt x="-296" y="877" on="1"/>
        <pt x="-297" y="874" on="0"/>
        <pt x="-297" y="870" on="1"/>
        <pt x="-297" y="865" on="0"/>
      </contour>
      <contour>
        <pt x="-21" y="930" on="1"/>
        <pt x="-86" y="895" on="0"/>
        <pt x="-135" y="895" on="1"/>
        <pt x="-173" y="895" on="0"/>
        <pt x="-211" y="916" on="1"/>
        <pt x="-204" y="910" on="0"/>
        <pt x="-198" y="902" on="1"/>
        <pt x="-188" y="888" on="0"/>
        <pt x="-188" y="872" on="1"/>
        <pt x="-188" y="863" on="0"/>
        <pt x="-190" y="855" on="1"/>
        <pt x="-199" y="830" on="0"/>
        <pt x="-228" y="818" on="1"/>
        <pt x="-248" y="809" on="0"/>
        <pt x="-268" y="809" on="1"/>
        <pt x="-279" y="809" on="0"/>
        <pt x="-289" y="811" on="1"/>
        <pt x="-321" y="818" on="0"/>
        <pt x="-337" y="841" on="1"/>
        <pt x="-354" y="864" on="0"/>
        <pt x="-354" y="884" on="1"/>
        <pt x="-354" y="916" on="0"/>
        <pt x="-304" y="938" on="1"/>
        <pt x="-268" y="954" on="0"/>
        <pt x="-229" y="954" on="1"/>
        <pt x="-208" y="954" on="0"/>
        <pt x="-185" y="949" on="1"/>
        <pt x="-172" y="946" on="0"/>
        <pt x="-157" y="946" on="1"/>
        <pt x="-105" y="946" on="0"/>
        <pt x="-43" y="984" on="1"/>
      </contour>
    </TTGlyph>
    <TTGlyph name="u0ECC.b" xMin="-354" yMin="580" xMax="-1" yMax="805">
      <contour>
        <pt x="-294" y="646" on="1"/>
        <pt x="-287" y="634" on="0"/>
        <pt x="-275" y="631" on="1"/>
        <pt x="-272" y="630" on="0"/>
        <pt x="-268" y="630" on="1"/>
        <pt x="-260" y="630" on="0"/>
        <pt x="-253" y="634" on="1"/>
        <pt x="-242" y="640" on="0"/>
        <pt x="-238" y="652" on="1"/>
        <pt x="-237" y="656" on="0"/>
        <pt x="-237" y="661" on="1"/>
        <pt x="-237" y="668" on="0"/>
        <pt x="-241" y="675" on="1"/>
        <pt x="-247" y="685" on="0"/>
        <pt x="-259" y="689" on="1"/>
        <pt x="-264" y="690" on="0"/>
        <pt x="-268" y="690" on="1"/>
        <pt x="-276" y="690" on="0"/>
        <pt x="-282" y="686" on="1"/>
        <pt x="-293" y="680" on="0"/>
        <pt x="-296" y="668" on="1"/>
        <pt x="-297" y="664" on="0"/>
        <pt x="-297" y="659" on="1"/>
        <pt x="-297" y="652" on="0"/>
      </contour>
      <contour>
        <pt x="-1" y="749" on="1"/>
        <pt x="-66" y="704" on="0"/>
        <pt x="-135" y="704" on="1"/>
        <pt x="-173" y="704" on="0"/>
        <pt x="-211" y="717" on="1"/>
        <pt x="-204" y="710" on="0"/>
        <pt x="-198" y="700" on="1"/>
        <pt x="-188" y="681" on="0"/>
        <pt x="-188" y="661" on="1"/>
        <pt x="-188" y="650" on="0"/>
        <pt x="-190" y="639" on="1"/>
        <pt x="-199" y="607" on="0"/>
        <pt x="-228" y="591" on="1"/>
        <pt x="-248" y="580" on="0"/>
        <pt x="-268" y="580" on="1"/>
        <pt x="-279" y="580" on="0"/>
        <pt x="-289" y="583" on="1"/>
        <pt x="-321" y="592" on="0"/>
        <pt x="-337" y="621" on="1"/>
        <pt x="-354" y="651" on="0"/>
        <pt x="-354" y="676" on="1"/>
        <pt x="-354" y="718" on="0"/>
        <pt x="-304" y="746" on="1"/>
        <pt x="-268" y="766" on="0"/>
        <pt x="-229" y="766" on="1"/>
        <pt x="-208" y="766" on="0"/>
        <pt x="-185" y="760" on="1"/>
        <pt x="-172" y="756" on="0"/>
        <pt x="-157" y="756" on="1"/>
        <pt x="-105" y="756" on="0"/>
        <pt x="-43" y="805" on="1"/>
      </contour>
    </TTGlyph>
    <TTGlyph name="u0ECD" xMin="-375" yMin="600" xMax="-175" yMax="800">
      <contour>
        <pt x="-275" y="740" on="1"/>
        <pt x="-292" y="740" on="0"/>
        <pt x="-315" y="717" on="0"/>
        <pt x="-315" y="700" on="1"/>
        <pt x="-315" y="684" on="0"/>
        <pt x="-292" y="660" on="0"/>
        <pt x="-275" y="660" on="1"/>
        <pt x="-258" y="660" on="0"/>
        <pt x="-235" y="684" on="0"/>
        <pt x="-235" y="700" on="1"/>
        <pt x="-235" y="717" on="0"/>
        <pt x="-258" y="740" on="0"/>
      </contour>
      <contour>
        <pt x="-234" y="800" on="0"/>
        <pt x="-175" y="742" on="0"/>
        <pt x="-175" y="700" on="1"/>
        <pt x="-175" y="659" on="0"/>
        <pt x="-234" y="600" on="0"/>
        <pt x="-275" y="600" on="1"/>
        <pt x="-316" y="600" on="0"/>
        <pt x="-375" y="659" on="0"/>
        <pt x="-375" y="700" on="1"/>
        <pt x="-375" y="742" on="0"/>
        <pt x="-316" y="800" on="0"/>
        <pt x="-275" y="800" on="1"/>
      </contour>
    </TTGlyph>
    <TTGlyph name="u0ED0" xMin="75" yMin="0" xMax="536" yMax="520">
      <contour>
        <pt x="306" y="454" on="1"/>
        <pt x="157" y="454" on="0"/>
        <pt x="157" y="260" on="1"/>
        <pt x="157" y="66" on="0"/>
        <pt x="306" y="66" on="1"/>
        <pt x="454" y="66" on="0"/>
        <pt x="454" y="260" on="1"/>
        <pt x="454" y="454" on="0"/>
      </contour>
      <contour>
        <pt x="306" y="0" on="1"/>
        <pt x="75" y="0" on="0"/>
        <pt x="75" y="260" on="1"/>
        <pt x="75" y="520" on="0"/>
        <pt x="306" y="520" on="1"/>
        <pt x="536" y="520" on="0"/>
        <pt x="536" y="260" on="1"/>
        <pt x="536" y="0" on="0"/>
      </contour>
    </TTGlyph>
    <TTGlyph name="u0ED1" xMin="75" yMin="0" xMax="536" yMax="520">
      <contour>
        <pt x="264" y="289" on="1"/>
        <pt x="251" y="289" on="0"/>
        <pt x="234" y="271" on="0"/>
        <pt x="234" y="259" on="1"/>
        <pt x="234" y="246" on="0"/>
        <pt x="251" y="229" on="0"/>
        <pt x="264" y="229" on="1"/>
        <pt x="276" y="229" on="0"/>
        <pt x="294" y="246" on="0"/>
        <pt x="294" y="259" on="1"/>
        <pt x="294" y="271" on="0"/>
        <pt x="276" y="289" on="0"/>
      </contour>
      <contour>
        <pt x="235" y="179" on="1"/>
        <pt x="75" y="179" on="0"/>
        <pt x="75" y="342" on="1"/>
        <pt x="75" y="520" on="0"/>
        <pt x="304" y="520" on="1"/>
        <pt x="536" y="520" on="0"/>
        <pt x="536" y="271" on="1"/>
        <pt x="536" y="147" on="0"/>
        <pt x="365" y="0" on="0"/>
        <pt x="215" y="0" on="1"/>
        <pt x="215" y="66" on="1"/>
        <pt x="336" y="66" on="0"/>
        <pt x="454" y="185" on="0"/>
        <pt x="454" y="271" on="1"/>
        <pt x="454" y="454" on="0"/>
        <pt x="304" y="454" on="1"/>
        <pt x="157" y="454" on="0"/>
        <pt x="157" y="346" on="1"/>
        <pt x="157" y="285" on="0"/>
        <pt x="184" y="260" on="1"/>
        <pt x="185" y="293" on="0"/>
        <pt x="208" y="316" on="1"/>
        <pt x="231" y="339" on="0"/>
        <pt x="264" y="339" on="1"/>
        <pt x="297" y="339" on="0"/>
        <pt x="344" y="292" on="0"/>
        <pt x="344" y="259" on="1"/>
        <pt x="344" y="225" on="0"/>
        <pt x="297" y="179" on="0"/>
        <pt x="264" y="179" on="1"/>
      </contour>
    </TTGlyph>
    <TTGlyph name="u0ED2" xMin="75" yMin="0" xMax="536" yMax="701">
      <contour>
        <pt x="439" y="134" on="1"/>
        <pt x="452" y="134" on="0"/>
        <pt x="469" y="151" on="0"/>
        <pt x="469" y="164" on="1"/>
        <pt x="469" y="176" on="0"/>
        <pt x="452" y="194" on="0"/>
        <pt x="439" y="194" on="1"/>
        <pt x="427" y="194" on="0"/>
        <pt x="409" y="176" on="0"/>
        <pt x="409" y="164" on="1"/>
        <pt x="409" y="151" on="0"/>
        <pt x="427" y="134" on="0"/>
      </contour>
      <contour>
        <pt x="536" y="151" on="1"/>
        <pt x="536" y="0" on="0"/>
        <pt x="305" y="0" on="1"/>
        <pt x="75" y="0" on="0"/>
        <pt x="75" y="161" on="1"/>
        <pt x="75" y="286" on="1"/>
        <pt x="75" y="411" on="0"/>
        <pt x="277" y="519" on="1"/>
        <pt x="454" y="613" on="0"/>
        <pt x="454" y="701" on="1"/>
        <pt x="536" y="701" on="1"/>
        <pt x="536" y="582" on="0"/>
        <pt x="308" y="460" on="1"/>
        <pt x="157" y="380" on="0"/>
        <pt x="157" y="286" on="1"/>
        <pt x="157" y="161" on="1"/>
        <pt x="157" y="66" on="0"/>
        <pt x="305" y="66" on="1"/>
        <pt x="376" y="66" on="0"/>
        <pt x="413" y="88" on="1"/>
        <pt x="396" y="94" on="0"/>
        <pt x="382" y="107" on="1"/>
        <pt x="359" y="130" on="0"/>
        <pt x="359" y="164" on="1"/>
        <pt x="359" y="197" on="0"/>
        <pt x="406" y="244" on="0"/>
        <pt x="439" y="244" on="1"/>
        <pt x="536" y="244" on="0"/>
      </contour>
    </TTGlyph>
    <TTGlyph name="u0ED3" xMin="40" yMin="0" xMax="550" yMax="805">
      <contour>
        <pt x="120" y="110" on="1"/>
        <pt x="108" y="110" on="0"/>
        <pt x="90" y="92" on="0"/>
        <pt x="90" y="80" on="1"/>
        <pt x="90" y="67" on="0"/>
        <pt x="108" y="50" on="0"/>
        <pt x="120" y="50" on="1"/>
        <pt x="133" y="50" on="0"/>
        <pt x="150" y="67" on="0"/>
        <pt x="150" y="80" on="1"/>
        <pt x="150" y="92" on="0"/>
        <pt x="133" y="110" on="0"/>
      </contour>
      <contour>
        <pt x="468" y="502" on="1"/>
        <pt x="468" y="523" on="0"/>
        <pt x="359" y="583" on="0"/>
        <pt x="211" y="646" on="0"/>
        <pt x="171" y="702" on="0"/>
        <pt x="171" y="730" on="1"/>
        <pt x="171" y="768" on="0"/>
        <pt x="214" y="805" on="0"/>
        <pt x="247" y="805" on="1"/>
        <pt x="307" y="805" on="0"/>
        <pt x="361" y="778" on="1"/>
        <pt x="550" y="694" on="1"/>
        <pt x="514" y="642" on="1"/>
        <pt x="338" y="722" on="1"/>
        <pt x="274" y="748" on="0"/>
        <pt x="256" y="748" on="1"/>
        <pt x="248" y="748" on="0"/>
        <pt x="238" y="732" on="0"/>
        <pt x="238" y="727" on="1"/>
        <pt x="238" y="718" on="0"/>
        <pt x="253" y="700" on="0"/>
        <pt x="264" y="692" on="1"/>
        <pt x="469" y="597" on="1"/>
        <pt x="533" y="566" on="0"/>
        <pt x="550" y="500" on="1"/>
        <pt x="550" y="140" on="1"/>
        <pt x="550" y="0" on="0"/>
        <pt x="349" y="0" on="1"/>
        <pt x="254" y="0" on="0"/>
        <pt x="204" y="31" on="1"/>
        <pt x="176" y="0" on="0"/>
        <pt x="120" y="0" on="1"/>
        <pt x="87" y="0" on="0"/>
        <pt x="40" y="46" on="0"/>
        <pt x="40" y="80" on="1"/>
        <pt x="40" y="113" on="0"/>
        <pt x="87" y="160" on="0"/>
        <pt x="120" y="160" on="1"/>
        <pt x="135" y="160" on="0"/>
        <pt x="148" y="155" on="1"/>
        <pt x="148" y="520" on="1"/>
        <pt x="230" y="520" on="1"/>
        <pt x="230" y="140" on="1"/>
        <pt x="230" y="66" on="0"/>
        <pt x="349" y="66" on="1"/>
        <pt x="468" y="66" on="0"/>
        <pt x="468" y="140" on="1"/>
      </contour>
    </TTGlyph>
    <TTGlyph name="u0ED4" xMin="75" yMin="0" xMax="536" yMax="701">
      <contour>
        <pt x="468" y="47" on="1"/>
        <pt x="486" y="47" on="0"/>
        <pt x="486" y="69" on="1"/>
        <pt x="486" y="91" on="0"/>
        <pt x="464" y="91" on="1"/>
        <pt x="463" y="91" on="1"/>
        <pt x="442" y="91" on="0"/>
        <pt x="436" y="90" on="1"/>
        <pt x="436" y="88" on="1"/>
        <pt x="436" y="47" on="0"/>
      </contour>
      <contour>
        <pt x="456" y="313" on="1"/>
        <pt x="443" y="313" on="0"/>
        <pt x="426" y="295" on="0"/>
        <pt x="426" y="283" on="1"/>
        <pt x="426" y="270" on="0"/>
        <pt x="443" y="253" on="0"/>
        <pt x="456" y="253" on="1"/>
        <pt x="468" y="253" on="0"/>
        <pt x="486" y="270" on="0"/>
        <pt x="486" y="283" on="1"/>
        <pt x="486" y="295" on="0"/>
        <pt x="468" y="313" on="0"/>
      </contour>
      <contour>
        <pt x="75" y="0" on="0"/>
        <pt x="75" y="161" on="1"/>
        <pt x="75" y="286" on="1"/>
        <pt x="75" y="411" on="0"/>
        <pt x="277" y="519" on="1"/>
        <pt x="454" y="613" on="0"/>
        <pt x="454" y="701" on="1"/>
        <pt x="536" y="701" on="1"/>
        <pt x="536" y="582" on="0"/>
        <pt x="308" y="460" on="1"/>
        <pt x="157" y="380" on="0"/>
        <pt x="157" y="286" on="1"/>
        <pt x="157" y="161" on="1"/>
        <pt x="157" y="66" on="0"/>
        <pt x="226" y="66" on="1"/>
        <pt x="259" y="66" on="0"/>
        <pt x="333" y="113" on="0"/>
        <pt x="354" y="141" on="1"/>
        <pt x="354" y="283" on="1"/>
        <pt x="354" y="363" on="0"/>
        <pt x="456" y="363" on="1"/>
        <pt x="489" y="363" on="0"/>
        <pt x="536" y="316" on="0"/>
        <pt x="536" y="283" on="1"/>
        <pt x="536" y="250" on="0"/>
        <pt x="489" y="203" on="0"/>
        <pt x="456" y="203" on="1"/>
        <pt x="446" y="203" on="0"/>
        <pt x="436" y="205" on="1"/>
        <pt x="436" y="142" on="1"/>
        <pt x="442" y="143" on="0"/>
        <pt x="463" y="143" on="1"/>
        <pt x="536" y="143" on="0"/>
        <pt x="536" y="71" on="1"/>
        <pt x="536" y="0" on="0"/>
        <pt x="468" y="0" on="1"/>
        <pt x="399" y="0" on="0"/>
        <pt x="354" y="61" on="1"/>
        <pt x="322" y="33" on="0"/>
        <pt x="259" y="0" on="0"/>
        <pt x="226" y="0" on="1"/>
      </contour>
    </TTGlyph>
    <TTGlyph name="u0ED5" xMin="75" yMin="0" xMax="536" yMax="701">
      <contour>
        <pt x="468" y="47" on="1"/>
        <pt x="486" y="47" on="0"/>
        <pt x="486" y="69" on="1"/>
        <pt x="486" y="91" on="0"/>
        <pt x="464" y="91" on="1"/>
        <pt x="463" y="91" on="1"/>
        <pt x="442" y="91" on="0"/>
        <pt x="436" y="90" on="1"/>
        <pt x="436" y="88" on="1"/>
        <pt x="436" y="47" on="0"/>
      </contour>
      <contour>
        <pt x="456" y="313" on="1"/>
        <pt x="443" y="313" on="0"/>
        <pt x="426" y="295" on="0"/>
        <pt x="426" y="283" on="1"/>
        <pt x="426" y="270" on="0"/>
        <pt x="443" y="253" on="0"/>
        <pt x="456" y="253" on="1"/>
        <pt x="468" y="253" on="0"/>
        <pt x="486" y="270" on="0"/>
        <pt x="486" y="283" on="1"/>
        <pt x="486" y="295" on="0"/>
        <pt x="468" y="313" on="0"/>
      </contour>
      <contour>
        <pt x="345" y="435" on="1"/>
        <pt x="328" y="419" on="0"/>
        <pt x="303" y="410" on="1"/>
        <pt x="157" y="357" on="0"/>
        <pt x="157" y="286" on="1"/>
        <pt x="157" y="161" on="1"/>
        <pt x="157" y="66" on="0"/>
        <pt x="226" y="66" on="1"/>
        <pt x="259" y="66" on="0"/>
        <pt x="333" y="113" on="0"/>
        <pt x="354" y="141" on="1"/>
        <pt x="354" y="283" on="1"/>
        <pt x="354" y="363" on="0"/>
        <pt x="456" y="363" on="1"/>
        <pt x="489" y="363" on="0"/>
        <pt x="536" y="316" on="0"/>
        <pt x="536" y="283" on="1"/>
        <pt x="536" y="250" on="0"/>
        <pt x="489" y="203" on="0"/>
        <pt x="456" y="203" on="1"/>
        <pt x="446" y="203" on="0"/>
        <pt x="436" y="205" on="1"/>
        <pt x="436" y="142" on="1"/>
        <pt x="442" y="143" on="0"/>
        <pt x="463" y="143" on="1"/>
        <pt x="536" y="143" on="0"/>
        <pt x="536" y="71" on="1"/>
        <pt x="536" y="0" on="0"/>
        <pt x="468" y="0" on="1"/>
        <pt x="399" y="0" on="0"/>
        <pt x="354" y="61" on="1"/>
        <pt x="322" y="33" on="0"/>
        <pt x="259" y="0" on="0"/>
        <pt x="226" y="0" on="1"/>
        <pt x="75" y="0" on="0"/>
        <pt x="75" y="161" on="1"/>
        <pt x="75" y="286" on="1"/>
        <pt x="75" y="386" on="0"/>
        <pt x="240" y="457" on="1"/>
        <pt x="219" y="481" on="0"/>
        <pt x="219" y="530" on="1"/>
        <pt x="219" y="564" on="0"/>
        <pt x="266" y="610" on="0"/>
        <pt x="299" y="610" on="1"/>
        <pt x="332" y="610" on="0"/>
        <pt x="379" y="564" on="0"/>
        <pt x="379" y="530" on="1"/>
        <pt x="379" y="518" on="0"/>
        <pt x="378" y="506" on="1"/>
        <pt x="454" y="521" on="0"/>
        <pt x="454" y="570" on="1"/>
        <pt x="454" y="701" on="1"/>
        <pt x="536" y="701" on="1"/>
        <pt x="536" y="570" on="1"/>
        <pt x="536" y="448" on="0"/>
      </contour>
      <contour>
        <pt x="320" y="500" on="1"/>
        <pt x="329" y="513" on="0"/>
        <pt x="329" y="530" on="1"/>
        <pt x="329" y="543" on="0"/>
        <pt x="311" y="560" on="0"/>
        <pt x="299" y="560" on="1"/>
        <pt x="287" y="560" on="0"/>
        <pt x="269" y="543" on="0"/>
        <pt x="269" y="530" on="1"/>
        <pt x="269" y="518" on="0"/>
        <pt x="287" y="500" on="0"/>
        <pt x="299" y="500" on="1"/>
      </contour>
    </TTGlyph>
    <TTGlyph name="u0ED6" xMin="75" yMin="0" xMax="536" yMax="723">
      <contour>
        <pt x="232" y="440" on="1"/>
        <pt x="232" y="453" on="0"/>
        <pt x="215" y="470" on="0"/>
        <pt x="202" y="470" on="1"/>
        <pt x="190" y="470" on="0"/>
        <pt x="172" y="453" on="0"/>
        <pt x="172" y="440" on="1"/>
        <pt x="172" y="428" on="0"/>
        <pt x="190" y="410" on="0"/>
        <pt x="202" y="410" on="1"/>
        <pt x="215" y="410" on="0"/>
        <pt x="232" y="428" on="0"/>
      </contour>
      <contour>
        <pt x="454" y="445" on="1"/>
        <pt x="454" y="474" on="0"/>
        <pt x="310" y="592" on="0"/>
        <pt x="284" y="625" on="0"/>
        <pt x="278" y="646" on="0"/>
        <pt x="278" y="658" on="1"/>
        <pt x="278" y="684" on="0"/>
        <pt x="315" y="723" on="0"/>
        <pt x="345" y="723" on="1"/>
        <pt x="378" y="723" on="0"/>
        <pt x="465" y="684" on="0"/>
        <pt x="536" y="633" on="1"/>
        <pt x="503" y="584" on="1"/>
        <pt x="393" y="647" on="1"/>
        <pt x="370" y="660" on="0"/>
        <pt x="359" y="660" on="1"/>
        <pt x="351" y="660" on="0"/>
        <pt x="342" y="650" on="0"/>
        <pt x="342" y="646" on="1"/>
        <pt x="342" y="637" on="0"/>
        <pt x="356" y="620" on="0"/>
        <pt x="366" y="613" on="1"/>
        <pt x="490" y="524" on="1"/>
        <pt x="520" y="505" on="0"/>
        <pt x="536" y="453" on="1"/>
        <pt x="536" y="160" on="1"/>
        <pt x="536" y="0" on="0"/>
        <pt x="406" y="0" on="1"/>
        <pt x="339" y="0" on="0"/>
        <pt x="306" y="63" on="1"/>
        <pt x="273" y="0" on="0"/>
        <pt x="206" y="0" on="1"/>
        <pt x="75" y="0" on="0"/>
        <pt x="75" y="160" on="1"/>
        <pt x="75" y="413" on="1"/>
        <pt x="75" y="520" on="0"/>
        <pt x="202" y="520" on="1"/>
        <pt x="235" y="520" on="0"/>
        <pt x="282" y="473" on="0"/>
        <pt x="282" y="440" on="1"/>
        <pt x="282" y="407" on="0"/>
        <pt x="235" y="360" on="0"/>
        <pt x="202" y="360" on="1"/>
        <pt x="177" y="360" on="0"/>
        <pt x="157" y="374" on="1"/>
        <pt x="157" y="160" on="1"/>
        <pt x="157" y="66" on="0"/>
        <pt x="206" y="66" on="1"/>
        <pt x="265" y="66" on="0"/>
        <pt x="265" y="170" on="1"/>
        <pt x="265" y="250" on="1"/>
        <pt x="347" y="250" on="1"/>
        <pt x="347" y="170" on="1"/>
        <pt x="347" y="66" on="0"/>
        <pt x="406" y="66" on="1"/>
        <pt x="454" y="66" on="0"/>
        <pt x="454" y="160" on="1"/>
      </contour>
    </TTGlyph>
    <TTGlyph name="u0ED7" xMin="40" yMin="-205" xMax="594" yMax="520">
      <contour>
        <pt x="150" y="440" on="1"/>
        <pt x="150" y="453" on="0"/>
        <pt x="133" y="470" on="0"/>
        <pt x="120" y="470" on="1"/>
        <pt x="108" y="470" on="0"/>
        <pt x="90" y="453" on="0"/>
        <pt x="90" y="440" on="1"/>
        <pt x="90" y="428" on="0"/>
        <pt x="108" y="410" on="0"/>
        <pt x="120" y="410" on="1"/>
        <pt x="133" y="410" on="0"/>
        <pt x="150" y="428" on="0"/>
      </contour>
      <contour>
        <pt x="120" y="110" on="1"/>
        <pt x="108" y="110" on="0"/>
        <pt x="90" y="92" on="0"/>
        <pt x="90" y="80" on="1"/>
        <pt x="90" y="67" on="0"/>
        <pt x="108" y="50" on="0"/>
        <pt x="120" y="50" on="1"/>
        <pt x="133" y="50" on="0"/>
        <pt x="150" y="67" on="0"/>
        <pt x="150" y="80" on="1"/>
        <pt x="150" y="92" on="0"/>
        <pt x="133" y="110" on="0"/>
      </contour>
      <contour>
        <pt x="550" y="-63" on="1"/>
        <pt x="550" y="-106" on="0"/>
        <pt x="579" y="-137" on="0"/>
        <pt x="594" y="-141" on="1"/>
        <pt x="594" y="-205" on="1"/>
        <pt x="533" y="-199" on="0"/>
        <pt x="468" y="-118" on="0"/>
        <pt x="468" y="-49" on="1"/>
        <pt x="468" y="380" on="1"/>
        <pt x="468" y="454" on="0"/>
        <pt x="349" y="454" on="1"/>
        <pt x="230" y="454" on="0"/>
        <pt x="230" y="380" on="1"/>
        <pt x="230" y="120" on="1"/>
        <pt x="230" y="0" on="0"/>
        <pt x="120" y="0" on="1"/>
        <pt x="87" y="0" on="0"/>
        <pt x="40" y="46" on="0"/>
        <pt x="40" y="80" on="1"/>
        <pt x="40" y="113" on="0"/>
        <pt x="87" y="160" on="0"/>
        <pt x="120" y="160" on="1"/>
        <pt x="135" y="160" on="0"/>
        <pt x="148" y="155" on="1"/>
        <pt x="148" y="365" on="1"/>
        <pt x="135" y="360" on="0"/>
        <pt x="120" y="360" on="1"/>
        <pt x="87" y="360" on="0"/>
        <pt x="40" y="407" on="0"/>
        <pt x="40" y="440" on="1"/>
        <pt x="40" y="474" on="0"/>
        <pt x="87" y="520" on="0"/>
        <pt x="120" y="520" on="1"/>
        <pt x="176" y="520" on="0"/>
        <pt x="204" y="489" on="1"/>
        <pt x="254" y="520" on="0"/>
        <pt x="349" y="520" on="1"/>
        <pt x="550" y="520" on="0"/>
        <pt x="550" y="380" on="1"/>
      </contour>
    </TTGlyph>
    <TTGlyph name="u0ED8" xMin="75" yMin="-205" xMax="540" yMax="520">
      <contour>
        <pt x="406" y="-127" on="1"/>
        <pt x="406" y="-135" on="0"/>
        <pt x="417" y="-150" on="0"/>
        <pt x="437" y="-158" on="0"/>
        <pt x="448" y="-158" on="1"/>
        <pt x="457" y="-158" on="0"/>
        <pt x="477" y="-150" on="0"/>
        <pt x="489" y="-135" on="0"/>
        <pt x="489" y="-127" on="1"/>
        <pt x="489" y="-120" on="0"/>
        <pt x="477" y="-105" on="0"/>
        <pt x="457" y="-98" on="0"/>
        <pt x="448" y="-98" on="1"/>
        <pt x="437" y="-98" on="0"/>
        <pt x="417" y="-105" on="0"/>
        <pt x="406" y="-120" on="0"/>
      </contour>
      <contour>
        <pt x="202" y="160" on="1"/>
        <pt x="190" y="160" on="0"/>
        <pt x="172" y="142" on="0"/>
        <pt x="172" y="130" on="1"/>
        <pt x="172" y="117" on="0"/>
        <pt x="190" y="100" on="0"/>
        <pt x="202" y="100" on="1"/>
        <pt x="215" y="100" on="0"/>
        <pt x="232" y="117" on="0"/>
        <pt x="232" y="130" on="1"/>
        <pt x="232" y="142" on="0"/>
        <pt x="215" y="160" on="0"/>
      </contour>
      <contour>
        <pt x="454" y="0" on="1"/>
        <pt x="454" y="17" on="1"/>
        <pt x="322" y="-19" on="1"/>
        <pt x="264" y="-36" on="1"/>
        <pt x="146" y="-67" on="0"/>
        <pt x="146" y="-98" on="1"/>
        <pt x="146" y="-115" on="0"/>
        <pt x="169" y="-131" on="0"/>
        <pt x="196" y="-131" on="1"/>
        <pt x="233" y="-131" on="0"/>
        <pt x="281" y="-100" on="1"/>
        <pt x="335" y="-68" on="0"/>
        <pt x="381" y="-58" on="1"/>
        <pt x="454" y="-11" on="0"/>
      </contour>
      <contour>
        <pt x="157" y="196" on="1"/>
        <pt x="177" y="210" on="0"/>
        <pt x="202" y="210" on="1"/>
        <pt x="235" y="210" on="0"/>
        <pt x="282" y="163" on="0"/>
        <pt x="282" y="130" on="1"/>
        <pt x="282" y="97" on="0"/>
        <pt x="235" y="50" on="0"/>
        <pt x="202" y="50" on="1"/>
        <pt x="75" y="50" on="0"/>
        <pt x="75" y="157" on="1"/>
        <pt x="75" y="360" on="1"/>
        <pt x="75" y="520" on="0"/>
        <pt x="206" y="520" on="1"/>
        <pt x="273" y="520" on="0"/>
        <pt x="306" y="457" on="1"/>
        <pt x="339" y="520" on="0"/>
        <pt x="406" y="520" on="1"/>
        <pt x="536" y="520" on="0"/>
        <pt x="536" y="360" on="1"/>
        <pt x="536" y="0" on="1"/>
        <pt x="522" y="-31" on="0"/>
        <pt x="493" y="-52" on="1"/>
        <pt x="479" y="-62" on="1"/>
        <pt x="485" y="-64" on="0"/>
        <pt x="491" y="-66" on="1"/>
        <pt x="513" y="-76" on="0"/>
        <pt x="540" y="-111" on="0"/>
        <pt x="540" y="-131" on="1"/>
        <pt x="540" y="-150" on="0"/>
        <pt x="514" y="-185" on="0"/>
        <pt x="469" y="-205" on="0"/>
        <pt x="443" y="-205" on="1"/>
        <pt x="418" y="-205" on="0"/>
        <pt x="371" y="-185" on="0"/>
        <pt x="346" y="-150" on="0"/>
        <pt x="346" y="-131" on="1"/>
        <pt x="346" y="-126" on="1"/>
        <pt x="332" y="-133" on="0"/>
        <pt x="319" y="-142" on="1"/>
        <pt x="255" y="-185" on="0"/>
        <pt x="197" y="-185" on="1"/>
        <pt x="135" y="-185" on="0"/>
        <pt x="79" y="-134" on="0"/>
        <pt x="79" y="-98" on="1"/>
        <pt x="79" y="-29" on="0"/>
        <pt x="248" y="17" on="1"/>
        <pt x="454" y="73" on="1"/>
        <pt x="454" y="360" on="1"/>
        <pt x="454" y="454" on="0"/>
        <pt x="406" y="454" on="1"/>
        <pt x="347" y="454" on="0"/>
        <pt x="337" y="350" on="1"/>
        <pt x="274" y="350" on="1"/>
        <pt x="264" y="454" on="0"/>
        <pt x="206" y="454" on="1"/>
        <pt x="157" y="454" on="0"/>
        <pt x="157" y="360" on="1"/>
      </contour>
    </TTGlyph>
    <TTGlyph name="u0ED9" xMin="75" yMin="0" xMax="675" yMax="520">
      <contour>
        <pt x="202" y="110" on="1"/>
        <pt x="190" y="110" on="0"/>
        <pt x="172" y="92" on="0"/>
        <pt x="172" y="80" on="1"/>
        <pt x="172" y="67" on="0"/>
        <pt x="190" y="50" on="0"/>
        <pt x="202" y="50" on="1"/>
        <pt x="215" y="50" on="0"/>
        <pt x="232" y="67" on="0"/>
        <pt x="232" y="80" on="1"/>
        <pt x="232" y="92" on="0"/>
        <pt x="215" y="110" on="0"/>
      </contour>
      <contour>
        <pt x="75" y="360" on="1"/>
        <pt x="75" y="520" on="0"/>
        <pt x="251" y="520" on="1"/>
        <pt x="426" y="520" on="0"/>
        <pt x="426" y="360" on="1"/>
        <pt x="426" y="160" on="1"/>
        <pt x="426" y="66" on="0"/>
        <pt x="510" y="66" on="1"/>
        <pt x="593" y="66" on="0"/>
        <pt x="593" y="160" on="1"/>
        <pt x="593" y="520" on="1"/>
        <pt x="675" y="520" on="1"/>
        <pt x="675" y="160" on="1"/>
        <pt x="675" y="0" on="0"/>
        <pt x="510" y="0" on="1"/>
        <pt x="344" y="0" on="0"/>
        <pt x="344" y="160" on="1"/>
        <pt x="344" y="360" on="1"/>
        <pt x="344" y="454" on="0"/>
        <pt x="251" y="454" on="1"/>
        <pt x="157" y="454" on="0"/>
        <pt x="157" y="360" on="1"/>
        <pt x="157" y="146" on="1"/>
        <pt x="177" y="160" on="0"/>
        <pt x="202" y="160" on="1"/>
        <pt x="235" y="160" on="0"/>
        <pt x="282" y="113" on="0"/>
        <pt x="282" y="80" on="1"/>
        <pt x="282" y="47" on="0"/>
        <pt x="235" y="0" on="0"/>
        <pt x="202" y="0" on="1"/>
        <pt x="75" y="0" on="0"/>
        <pt x="75" y="107" on="1"/>
      </contour>
    </TTGlyph>
    <TTGlyph name="u0EDC" xMin="60" yMin="0" xMax="884" yMax="520">
      <contour>
        <pt x="140" y="470" on="1"/>
        <pt x="127" y="470" on="0"/>
        <pt x="110" y="453" on="0"/>
        <pt x="110" y="440" on="1"/>
        <pt x="110" y="428" on="0"/>
        <pt x="127" y="410" on="0"/>
        <pt x="140" y="410" on="1"/>
        <pt x="152" y="410" on="0"/>
        <pt x="170" y="428" on="0"/>
        <pt x="170" y="440" on="1"/>
        <pt x="170" y="453" on="0"/>
        <pt x="152" y="470" on="0"/>
      </contour>
      <contour>
        <pt x="573" y="380" on="1"/>
        <pt x="573" y="454" on="0"/>
        <pt x="500" y="454" on="1"/>
        <pt x="426" y="454" on="0"/>
        <pt x="426" y="380" on="1"/>
        <pt x="426" y="160" on="1"/>
        <pt x="426" y="0" on="0"/>
        <pt x="251" y="0" on="1"/>
        <pt x="75" y="0" on="0"/>
        <pt x="75" y="160" on="1"/>
        <pt x="75" y="247" on="0"/>
        <pt x="139" y="312" on="1"/>
        <pt x="155" y="329" on="0"/>
        <pt x="162" y="363" on="1"/>
        <pt x="152" y="360" on="0"/>
        <pt x="140" y="360" on="1"/>
        <pt x="107" y="360" on="0"/>
        <pt x="60" y="407" on="0"/>
        <pt x="60" y="440" on="1"/>
        <pt x="60" y="474" on="0"/>
        <pt x="107" y="520" on="0"/>
        <pt x="140" y="520" on="1"/>
        <pt x="249" y="520" on="0"/>
        <pt x="249" y="420" on="1"/>
        <pt x="249" y="307" on="0"/>
        <pt x="197" y="254" on="1"/>
        <pt x="157" y="213" on="0"/>
        <pt x="157" y="160" on="1"/>
        <pt x="157" y="66" on="0"/>
        <pt x="251" y="66" on="1"/>
        <pt x="344" y="66" on="0"/>
        <pt x="344" y="160" on="1"/>
        <pt x="344" y="380" on="1"/>
        <pt x="344" y="434" on="0"/>
        <pt x="296" y="464" on="1"/>
        <pt x="336" y="520" on="1"/>
        <pt x="364" y="503" on="0"/>
        <pt x="383" y="483" on="1"/>
        <pt x="424" y="520" on="0"/>
        <pt x="500" y="520" on="1"/>
        <pt x="655" y="520" on="0"/>
        <pt x="655" y="380" on="1"/>
        <pt x="655" y="140" on="1"/>
        <pt x="655" y="66" on="0"/>
        <pt x="729" y="66" on="1"/>
        <pt x="802" y="66" on="0"/>
        <pt x="802" y="140" on="1"/>
        <pt x="802" y="520" on="1"/>
        <pt x="884" y="520" on="1"/>
        <pt x="884" y="140" on="1"/>
        <pt x="884" y="0" on="0"/>
        <pt x="729" y="0" on="1"/>
        <pt x="653" y="0" on="0"/>
        <pt x="612" y="37" on="1"/>
        <pt x="593" y="17" on="0"/>
        <pt x="565" y="0" on="1"/>
        <pt x="525" y="56" on="1"/>
        <pt x="573" y="86" on="0"/>
        <pt x="573" y="140" on="1"/>
      </contour>
    </TTGlyph>
    <TTGlyph name="u0EDD" xMin="60" yMin="0" xMax="884" yMax="520">
      <contour>
        <pt x="140" y="470" on="1"/>
        <pt x="127" y="470" on="0"/>
        <pt x="110" y="453" on="0"/>
        <pt x="110" y="440" on="1"/>
        <pt x="110" y="428" on="0"/>
        <pt x="127" y="410" on="0"/>
        <pt x="140" y="410" on="1"/>
        <pt x="152" y="410" on="0"/>
        <pt x="170" y="428" on="0"/>
        <pt x="170" y="440" on="1"/>
        <pt x="170" y="453" on="0"/>
        <pt x="152" y="470" on="0"/>
      </contour>
      <contour>
        <pt x="545" y="110" on="1"/>
        <pt x="533" y="110" on="0"/>
        <pt x="515" y="92" on="0"/>
        <pt x="515" y="80" on="1"/>
        <pt x="515" y="67" on="0"/>
        <pt x="533" y="50" on="0"/>
        <pt x="545" y="50" on="1"/>
        <pt x="558" y="50" on="0"/>
        <pt x="575" y="67" on="0"/>
        <pt x="575" y="80" on="1"/>
        <pt x="575" y="92" on="0"/>
        <pt x="558" y="110" on="0"/>
      </contour>
      <contour>
        <pt x="573" y="380" on="1"/>
        <pt x="573" y="454" on="0"/>
        <pt x="500" y="454" on="1"/>
        <pt x="426" y="454" on="0"/>
        <pt x="426" y="380" on="1"/>
        <pt x="426" y="160" on="1"/>
        <pt x="426" y="0" on="0"/>
        <pt x="251" y="0" on="1"/>
        <pt x="75" y="0" on="0"/>
        <pt x="75" y="160" on="1"/>
        <pt x="75" y="247" on="0"/>
        <pt x="139" y="312" on="1"/>
        <pt x="155" y="329" on="0"/>
        <pt x="162" y="363" on="1"/>
        <pt x="152" y="360" on="0"/>
        <pt x="140" y="360" on="1"/>
        <pt x="107" y="360" on="0"/>
        <pt x="60" y="407" on="0"/>
        <pt x="60" y="440" on="1"/>
        <pt x="60" y="474" on="0"/>
        <pt x="107" y="520" on="0"/>
        <pt x="140" y="520" on="1"/>
        <pt x="249" y="520" on="0"/>
        <pt x="249" y="420" on="1"/>
        <pt x="249" y="307" on="0"/>
        <pt x="197" y="254" on="1"/>
        <pt x="157" y="213" on="0"/>
        <pt x="157" y="160" on="1"/>
        <pt x="157" y="66" on="0"/>
        <pt x="251" y="66" on="1"/>
        <pt x="344" y="66" on="0"/>
        <pt x="344" y="160" on="1"/>
        <pt x="344" y="380" on="1"/>
        <pt x="344" y="434" on="0"/>
        <pt x="296" y="464" on="1"/>
        <pt x="336" y="520" on="1"/>
        <pt x="364" y="503" on="0"/>
        <pt x="383" y="483" on="1"/>
        <pt x="424" y="520" on="0"/>
        <pt x="500" y="520" on="1"/>
        <pt x="655" y="520" on="0"/>
        <pt x="655" y="380" on="1"/>
        <pt x="655" y="140" on="1"/>
        <pt x="655" y="66" on="0"/>
        <pt x="729" y="66" on="1"/>
        <pt x="802" y="66" on="0"/>
        <pt x="802" y="140" on="1"/>
        <pt x="802" y="520" on="1"/>
        <pt x="884" y="520" on="1"/>
        <pt x="884" y="140" on="1"/>
        <pt x="884" y="0" on="0"/>
        <pt x="729" y="0" on="1"/>
        <pt x="679" y="0" on="0"/>
        <pt x="629" y="31" on="1"/>
        <pt x="601" y="0" on="0"/>
        <pt x="545" y="0" on="1"/>
        <pt x="512" y="0" on="0"/>
        <pt x="465" y="46" on="0"/>
        <pt x="465" y="80" on="1"/>
        <pt x="465" y="113" on="0"/>
        <pt x="512" y="160" on="0"/>
        <pt x="545" y="160" on="1"/>
        <pt x="560" y="160" on="0"/>
        <pt x="573" y="155" on="1"/>
      </contour>
    </TTGlyph>
    <TTGlyph name="u0EDE" xMin="40" yMin="0" xMax="703" yMax="520">
      <contour>
        <pt x="120" y="110" on="1"/>
        <pt x="108" y="110" on="0"/>
        <pt x="90" y="92" on="0"/>
        <pt x="90" y="80" on="1"/>
        <pt x="90" y="67" on="0"/>
        <pt x="108" y="50" on="0"/>
        <pt x="120" y="50" on="1"/>
        <pt x="133" y="50" on="0"/>
        <pt x="150" y="67" on="0"/>
        <pt x="150" y="80" on="1"/>
        <pt x="150" y="92" on="0"/>
        <pt x="133" y="110" on="0"/>
      </contour>
      <contour>
        <pt x="352" y="333" on="1"/>
        <pt x="340" y="333" on="0"/>
        <pt x="322" y="316" on="0"/>
        <pt x="322" y="303" on="1"/>
        <pt x="322" y="291" on="0"/>
        <pt x="340" y="273" on="0"/>
        <pt x="352" y="273" on="1"/>
        <pt x="364" y="273" on="0"/>
        <pt x="382" y="291" on="0"/>
        <pt x="382" y="303" on="1"/>
        <pt x="382" y="316" on="0"/>
        <pt x="364" y="333" on="0"/>
      </contour>
      <contour>
        <pt x="468" y="226" on="1"/>
        <pt x="468" y="380" on="1"/>
        <pt x="468" y="454" on="0"/>
        <pt x="349" y="454" on="1"/>
        <pt x="230" y="454" on="0"/>
        <pt x="230" y="380" on="1"/>
        <pt x="230" y="120" on="1"/>
        <pt x="230" y="0" on="0"/>
        <pt x="120" y="0" on="1"/>
        <pt x="87" y="0" on="0"/>
        <pt x="40" y="46" on="0"/>
        <pt x="40" y="80" on="1"/>
        <pt x="40" y="113" on="0"/>
        <pt x="87" y="160" on="0"/>
        <pt x="120" y="160" on="1"/>
        <pt x="135" y="160" on="0"/>
        <pt x="148" y="155" on="1"/>
        <pt x="148" y="380" on="1"/>
        <pt x="148" y="434" on="0"/>
        <pt x="70" y="464" on="1"/>
        <pt x="90" y="520" on="1"/>
        <pt x="153" y="506" on="0"/>
        <pt x="188" y="477" on="1"/>
        <pt x="237" y="520" on="0"/>
        <pt x="349" y="520" on="1"/>
        <pt x="550" y="520" on="0"/>
        <pt x="550" y="380" on="1"/>
        <pt x="550" y="243" on="1"/>
        <pt x="631" y="277" on="0"/>
        <pt x="631" y="383" on="1"/>
        <pt x="703" y="383" on="1"/>
        <pt x="703" y="209" on="0"/>
        <pt x="550" y="171" on="1"/>
        <pt x="550" y="0" on="1"/>
        <pt x="468" y="0" on="1"/>
        <pt x="468" y="160" on="1"/>
        <pt x="453" y="160" on="1"/>
        <pt x="272" y="160" on="0"/>
        <pt x="272" y="303" on="1"/>
        <pt x="272" y="336" on="0"/>
        <pt x="319" y="383" on="0"/>
        <pt x="352" y="383" on="1"/>
        <pt x="385" y="383" on="0"/>
        <pt x="432" y="336" on="0"/>
        <pt x="432" y="303" on="1"/>
        <pt x="432" y="270" on="0"/>
        <pt x="409" y="247" on="1"/>
        <pt x="402" y="240" on="0"/>
        <pt x="395" y="236" on="1"/>
        <pt x="418" y="226" on="0"/>
        <pt x="453" y="226" on="1"/>
      </contour>
    </TTGlyph>
    <TTGlyph name="u0EDF" xMin="75" yMin="0" xMax="713" yMax="520">
      <contour>
        <pt x="232" y="428" on="0"/>
        <pt x="232" y="440" on="1"/>
        <pt x="232" y="453" on="0"/>
        <pt x="215" y="470" on="0"/>
        <pt x="202" y="470" on="1"/>
        <pt x="190" y="470" on="0"/>
        <pt x="172" y="453" on="0"/>
        <pt x="172" y="440" on="1"/>
        <pt x="172" y="428" on="0"/>
        <pt x="190" y="410" on="0"/>
        <pt x="202" y="410" on="1"/>
        <pt x="215" y="410" on="0"/>
      </contour>
      <contour>
        <pt x="362" y="403" on="1"/>
        <pt x="350" y="403" on="0"/>
        <pt x="332" y="386" on="0"/>
        <pt x="332" y="373" on="1"/>
        <pt x="332" y="361" on="0"/>
        <pt x="350" y="343" on="0"/>
        <pt x="362" y="343" on="1"/>
        <pt x="374" y="343" on="0"/>
        <pt x="392" y="361" on="0"/>
        <pt x="392" y="373" on="1"/>
        <pt x="392" y="386" on="0"/>
        <pt x="374" y="403" on="0"/>
      </contour>
      <contour>
        <pt x="536" y="236" on="1"/>
        <pt x="536" y="160" on="1"/>
        <pt x="536" y="0" on="0"/>
        <pt x="306" y="0" on="1"/>
        <pt x="75" y="0" on="0"/>
        <pt x="75" y="160" on="1"/>
        <pt x="75" y="175" on="1"/>
        <pt x="75" y="226" on="0"/>
        <pt x="109" y="254" on="1"/>
        <pt x="75" y="282" on="0"/>
        <pt x="75" y="333" on="1"/>
        <pt x="75" y="413" on="1"/>
        <pt x="75" y="520" on="0"/>
        <pt x="202" y="520" on="1"/>
        <pt x="235" y="520" on="0"/>
        <pt x="282" y="473" on="0"/>
        <pt x="282" y="440" on="1"/>
        <pt x="282" y="407" on="0"/>
        <pt x="235" y="360" on="0"/>
        <pt x="202" y="360" on="1"/>
        <pt x="177" y="360" on="0"/>
        <pt x="157" y="374" on="1"/>
        <pt x="157" y="333" on="1"/>
        <pt x="157" y="287" on="0"/>
        <pt x="238" y="287" on="1"/>
        <pt x="282" y="287" on="1"/>
        <pt x="282" y="221" on="1"/>
        <pt x="238" y="221" on="1"/>
        <pt x="157" y="221" on="0"/>
        <pt x="157" y="175" on="1"/>
        <pt x="157" y="160" on="1"/>
        <pt x="157" y="66" on="0"/>
        <pt x="306" y="66" on="1"/>
        <pt x="454" y="66" on="0"/>
        <pt x="454" y="160" on="1"/>
        <pt x="454" y="230" on="1"/>
        <pt x="282" y="234" on="0"/>
        <pt x="282" y="373" on="1"/>
        <pt x="282" y="406" on="0"/>
        <pt x="329" y="453" on="0"/>
        <pt x="362" y="453" on="1"/>
        <pt x="395" y="453" on="0"/>
        <pt x="442" y="406" on="0"/>
        <pt x="442" y="373" on="1"/>
        <pt x="442" y="340" on="0"/>
        <pt x="419" y="317" on="1"/>
        <pt x="412" y="310" on="0"/>
        <pt x="405" y="306" on="1"/>
        <pt x="425" y="297" on="0"/>
        <pt x="454" y="296" on="1"/>
        <pt x="454" y="520" on="1"/>
        <pt x="536" y="520" on="1"/>
        <pt x="536" y="304" on="1"/>
        <pt x="641" y="332" on="0"/>
        <pt x="641" y="453" on="1"/>
        <pt x="713" y="453" on="1"/>
        <pt x="713" y="265" on="0"/>
      </contour>
    </TTGlyph>
</ttFont>
